<svg width="32" height="32" viewBox="0 0 32 32" fill="none" xmlns="http://www.w3.org/2000/svg">
<path fill-rule="evenodd" clip-rule="evenodd" d="M11 6H26V22.5C26 24.9853 23.9853 27 21.5 27H11.5C11.2239 27 11 26.7761 11 26.5C11 26.2239 11.2239 26 11.5 26H21.5C23.433 26 25 24.433 25 22.5V7H12V20C12 20.2761 11.7761 20.5 11.5 20.5C11.2239 20.5 11 20.2761 11 20V6Z" fill="#B69D86"/>
<path fill-rule="evenodd" clip-rule="evenodd" d="M7.5 19.5H22V20.5H8.5V23.25C8.5 24.7688 9.73122 26 11.25 26H21.5C21.7761 26 22 26.2239 22 26.5C22 26.7761 21.7761 27 21.5 27H11.25C9.17893 27 7.5 25.3211 7.5 23.25V19.5Z" fill="#B69D86"/>
<path fill-rule="evenodd" clip-rule="evenodd" d="M24 16.5C24.2761 16.5 24.5 16.7239 24.5 17V22.5C24.5 23.4665 23.7165 24.25 22.75 24.25C21.7835 24.25 21 23.4665 21 22.5V20H22V22.5C22 22.9142 22.3358 23.25 22.75 23.25C23.1642 23.25 23.5 22.9142 23.5 22.5V17C23.5 16.7239 23.7239 16.5 24 16.5Z" fill="#B69D86"/>
<path d="M2.78226 9.78016C2.86054 10.6777 3.29477 11.4816 3.99349 12.035L8.40971 15.7454C9.32985 16.5184 10.4959 16.8869 11.6939 16.7824L12.4216 16.7189L11.3237 15.7971C10.4931 15.8033 9.69546 15.5193 9.05264 14.9796L4.62487 11.2604C4.13265 10.8707 3.83261 10.3139 3.77848 9.69327C3.6707 8.45746 4.58868 7.36407 5.82449 7.2563C6.44513 7.20217 7.04476 7.4016 7.52516 7.82848L8.62616 8.75194L9.36628 10.4607L9.26396 9.28741L11.3328 11.0234L12.074 12.734L11.9718 11.5617C12.6705 12.1611 13.1004 12.9931 13.1806 13.9119L13.2695 14.9315L8.23686 10.7062L7.59393 11.472L14.7927 17.5159L15.4357 16.7501L14.3526 15.8408L14.1768 13.825C14.0723 12.6275 13.5081 11.5423 12.587 10.7699L8.17875 7.07254C7.50185 6.47008 6.6352 6.1818 5.7376 6.26008C3.95238 6.41577 2.62657 7.99493 2.78226 9.78016Z" fill="#FD9F32"/>
</svg>
