<svg width="32" height="32" viewBox="0 0 32 32" fill="none" xmlns="http://www.w3.org/2000/svg">
<path d="M18.401 18.7605C17.5307 18.7605 16.68 18.5153 15.9564 18.056C15.2327 17.5966 14.6687 16.9438 14.3357 16.1799C14.0026 15.4161 13.9155 14.5756 14.0853 13.7647C14.2551 12.9538 14.6742 12.2089 15.2896 11.6243C15.9049 11.0397 16.689 10.6415 17.5426 10.4802C18.3962 10.3189 19.2809 10.4017 20.085 10.7181C20.889 11.0345 21.5762 11.5703 22.0597 12.2577C22.5433 12.9452 22.8013 13.7534 22.8013 14.5802C22.8013 15.6889 22.3377 16.7521 21.5125 17.5361C20.6873 18.3201 19.5681 18.7605 18.401 18.7605ZM18.401 11.7933C17.8208 11.7933 17.2537 11.9568 16.7712 12.263C16.2888 12.5692 15.9128 13.0045 15.6908 13.5137C15.4688 14.0229 15.4107 14.5833 15.5239 15.1239C15.6371 15.6645 15.9165 16.161 16.3267 16.5508C16.737 16.9405 17.2597 17.206 17.8287 17.3135C18.3978 17.421 18.9876 17.3658 19.5236 17.1549C20.0597 16.944 20.5178 16.5868 20.8402 16.1285C21.1625 15.6702 21.3346 15.1314 21.3346 14.5802C21.3346 13.8411 21.0255 13.1322 20.4754 12.6096C19.9252 12.0869 19.1791 11.7933 18.401 11.7933Z" fill="#B69D86"/>
<path fill-rule="evenodd" clip-rule="evenodd" d="M3.88006 24.1791L6.93741 20.2535L8.51163 22.1443L10.7478 19.2641L14.4408 24.188V18.321H3.88006V24.1791ZM3.23739 25.3615C3.19664 25.2914 3.16058 25.2183 3.12965 25.1427C3.0461 24.9382 3 24.7149 3 24.4814V17.4409H15.3208V26.2415H4.76012C4.11206 26.2415 3.54287 25.8866 3.23739 25.3615ZM8.53558 23.5485L6.96027 21.6564L4.76012 24.4814H13.5607L10.7357 20.7147L8.53558 23.5485Z" fill="#FD9F32"/>
<path fill-rule="evenodd" clip-rule="evenodd" d="M15.321 21.8411H27.799C27.9908 21.8411 28.1746 21.765 28.3102 21.6301C28.4457 21.4952 28.5219 21.3121 28.5219 21.1209V8.88039C28.5219 8.68917 28.4457 8.50611 28.3102 8.37118C28.1746 8.23582 27.9908 8.16019 27.799 8.16019H23.1291L21.8929 6.32401C21.8273 6.22517 21.7383 6.14353 21.6336 6.08723C21.529 6.03051 21.4119 6.00043 21.2929 6H15.5095C15.3905 6.00043 15.2734 6.03051 15.1688 6.08723C15.0641 6.14353 14.9751 6.22517 14.9095 6.32401L13.6734 8.16019H9.00341C8.89179 8.16019 8.78286 8.18554 8.68456 8.23367C8.61398 8.26847 8.54888 8.31445 8.49226 8.37118C8.35668 8.50611 8.28052 8.68917 8.28052 8.88039V17.4408H9.7263V9.60017H14.0638C14.1828 9.59974 14.2999 9.56966 14.4046 9.51336C14.5093 9.45664 14.5983 9.37543 14.6637 9.27616L15.8999 7.43998H20.9025L22.1387 9.27616C22.2041 9.37543 22.2932 9.45664 22.3978 9.51336C22.4743 9.55462 22.5573 9.58169 22.643 9.59372C22.6746 9.59802 22.7065 9.60017 22.7387 9.60017H27.0761V20.4011H15.321V21.8411Z" fill="#B69D86"/>
</svg>
