<svg width="91" height="90" viewBox="0 0 91 90" fill="none" xmlns="http://www.w3.org/2000/svg">
<path d="M79.0287 59.8284L30.9643 81.4693C27.899 82.8495 24.3173 81.2355 22.991 78.2898L4.88332 38.0727C3.493 34.9848 5.16954 31.7359 7.99848 30.4622L18.8699 25.5674C17.5494 18.5313 21.2922 11.0676 27.8289 8.12447C34.3657 5.18131 42.4349 7.32661 46.8286 12.979L56.0629 8.82134C58.9673 7.51361 62.3694 8.53481 63.7377 11.5737L81.8453 51.7908C83.29 54.9993 81.84 58.5627 79.0287 59.8284ZM9.32343 33.4049C7.9482 34.0241 7.2541 35.4775 7.82604 36.7478L25.9337 76.9649C26.5216 78.2705 28.2229 79.1644 29.6394 78.5266L77.7037 56.8857C79.0103 56.2974 79.5037 54.4508 78.9026 53.1157L60.7949 12.8986C60.4946 12.2316 59.1838 10.9554 57.3878 11.7641L46.9402 16.4681C46.2094 16.7971 45.3489 16.5392 44.9174 15.864C41.6687 10.7684 34.5979 8.61602 29.1539 11.0672C23.7108 13.5179 20.6342 20.2392 22.2968 26.0489C22.5163 26.8195 22.138 27.6352 21.4072 27.9642L9.32343 33.4049Z" fill="#FD9F32"/>
<path d="M39.7046 34.5012C33.7829 37.1674 26.7953 34.5186 24.129 28.5969C21.4624 22.6742 24.1112 15.6866 30.0329 13.0203C35.9556 10.3536 42.9432 13.0025 45.6099 18.9252C48.2761 24.8469 45.6273 31.8345 39.7046 34.5012ZM31.3579 15.963C27.0585 17.8988 25.1356 22.9716 27.0718 27.2719C29.0075 31.5712 34.0804 33.4942 38.3797 31.5585C42.68 29.6223 44.6029 24.5494 42.6672 20.2501C40.731 15.9498 35.6581 14.0268 31.3579 15.963Z" fill="#FD9F32"/>
<path d="M34.355 25.9463L28.6807 20.2323L36.143 23.2596C36.9852 23.6024 37.3916 24.5626 37.0502 25.4053C36.7078 26.2484 35.7485 26.6544 34.9054 26.312C34.6941 26.2278 34.5063 26.0964 34.355 25.9463Z" fill="#FD9F32"/>
<path d="M53.7744 24.1108C48.4079 28.5357 42.0094 40.4638 46.5245 45.9397C51.0395 51.4156 63.8894 47.3119 69.256 42.887C74.6225 38.4621 81.6744 26.1561 77.1593 20.6803C72.6442 15.2044 59.1409 19.6859 53.7744 24.1108Z" fill="#F2EDE6"/>
<path fill-rule="evenodd" clip-rule="evenodd" d="M76.4287 31.9675C74.5868 36.2182 71.5286 40.3284 68.9203 42.4791C66.3138 44.6282 61.8429 46.7278 57.4673 47.6078C55.2834 48.0471 53.1538 48.1761 51.3128 47.8734C49.4741 47.5712 47.9571 46.8454 46.933 45.6034C45.9086 44.361 45.4803 42.7268 45.527 40.8542C45.5737 38.9796 46.0969 36.9013 46.9346 34.8293C48.6133 30.6773 51.5068 26.6663 54.1114 24.5187C56.7179 22.3695 61.3537 20.1743 65.8977 19.1997C68.1656 18.7132 70.3785 18.5381 72.2819 18.8074C74.1843 19.0765 75.7339 19.7819 76.752 21.0166C77.7697 22.2509 78.162 23.8999 78.0566 25.8088C77.9511 27.719 77.3482 29.8457 76.4287 31.9675ZM79.1124 25.8671C79.227 23.7903 78.8076 21.8476 77.5678 20.3439C76.3284 18.8407 74.4969 18.0528 72.43 17.7604C70.3639 17.4681 68.019 17.6632 65.6759 18.1658C60.9978 19.1692 56.1987 21.4272 53.4387 23.7029C50.6767 25.9802 47.6877 30.1456 45.9543 34.4329C45.086 36.5806 44.5207 38.7876 44.4699 40.8279C44.419 42.8702 44.884 44.7805 46.1172 46.276C47.3506 47.7719 49.133 48.5867 51.1412 48.9168C53.1471 49.2465 55.412 49.0998 57.6758 48.6444C62.1955 47.7354 66.8329 45.5707 69.5929 43.2949C72.3511 41.0207 75.5021 36.7654 77.399 32.388C78.3489 30.1957 78.9978 27.9426 79.1124 25.8671Z" fill="#B69D86"/>
<path fill-rule="evenodd" clip-rule="evenodd" d="M74.0245 23.4942C73.8387 23.2689 73.5055 23.2369 73.2802 23.4226L68.4359 27.417C68.2106 27.6027 68.1785 27.9359 68.3643 28.1612C68.55 28.3865 68.8833 28.4185 69.1085 28.2328L73.9529 24.2384C74.1782 24.0527 74.2103 23.7195 74.0245 23.4942Z" fill="#B69D86"/>
<path fill-rule="evenodd" clip-rule="evenodd" d="M66.7572 29.4856C66.5714 29.2604 66.2382 29.2283 66.0129 29.4141L51.4798 41.3971C51.2545 41.5829 51.2224 41.9161 51.4082 42.1414C51.5939 42.3667 51.9271 42.3987 52.1524 42.213L66.6856 30.2299C66.9109 30.0441 66.9429 29.7109 66.7572 29.4856Z" fill="#B69D86"/>
<path d="M32.4437 45.2067C27.6267 41.7716 16.4177 39.1406 12.9127 44.0557C9.40758 48.9709 15.6082 58.6251 20.4252 62.0602C25.2422 65.4953 36.9054 68.58 40.4105 63.6649C43.9156 58.7497 37.2607 48.6418 32.4437 45.2067Z" fill="#F2EDE6"/>
<path fill-rule="evenodd" clip-rule="evenodd" d="M30.9754 65.5493C27.0775 64.9717 23.0273 63.3639 20.686 61.6943C18.3464 60.0259 15.6371 56.8148 13.9507 53.4135C13.1091 51.7159 12.5343 49.9946 12.3776 48.4153C12.2211 46.8381 12.4835 45.4319 13.2785 44.3171C14.0737 43.2019 15.3221 42.4902 16.8709 42.1163C18.4215 41.742 20.2441 41.7143 22.131 41.9465C25.9119 42.4117 29.8444 43.9059 32.1823 45.5731C34.5219 47.2416 37.3461 50.5671 39.1473 54.0859C40.0462 55.8422 40.6773 57.6218 40.8751 59.2449C41.0728 60.8673 40.8344 62.2958 40.044 63.404C39.254 64.512 37.9855 65.1973 36.3939 65.5309C34.8012 65.8648 32.9211 65.8376 30.9754 65.5493ZM36.5784 66.4112C38.31 66.0482 39.8139 65.2759 40.7763 63.9262C41.7385 62.5769 41.9827 60.8987 41.7679 59.1361C41.5532 57.3743 40.8766 55.4906 39.9479 53.6761C38.0936 50.0535 35.1819 46.6075 32.7045 44.8408C30.2254 43.0729 26.1449 41.5341 22.2408 41.0538C20.2851 40.8132 18.3473 40.8346 16.6599 41.242C14.9707 41.6498 13.5035 42.4525 12.5462 43.7949C11.5887 45.1376 11.3117 46.7814 11.4826 48.5041C11.6533 50.2247 12.2725 52.0533 13.1449 53.813C14.8868 57.3264 17.6864 60.6599 20.1638 62.4266C22.6395 64.1921 26.8294 65.8442 30.8436 66.439C32.8539 66.7369 34.8479 66.774 36.5784 66.4112Z" fill="#B69D86"/>
<path fill-rule="evenodd" clip-rule="evenodd" d="M37.4081 61.7086C37.5523 61.5063 37.5053 61.2255 37.303 61.0813L32.9547 57.9805C32.7525 57.8363 32.4717 57.8833 32.3275 58.0855C32.1833 58.2877 32.2303 58.5685 32.4325 58.7127L36.7808 61.8136C36.983 61.9578 37.2639 61.9108 37.4081 61.7086Z" fill="#B69D86"/>
<path fill-rule="evenodd" clip-rule="evenodd" d="M30.8859 57.0564C31.0301 56.8542 30.983 56.5734 30.7808 56.4292L17.7359 47.1266C17.5336 46.9824 17.2528 47.0294 17.1086 47.2316C16.9644 47.4338 17.0114 47.7147 17.2136 47.8589L30.2586 57.1614C30.4608 57.3056 30.7417 57.2586 30.8859 57.0564Z" fill="#B69D86"/>
</svg>
