<svg width="90" height="90" viewBox="0 0 90 90" fill="none" xmlns="http://www.w3.org/2000/svg">
<path d="M23.3211 27.787C14.191 31.5285 0.511128 45.0033 4.32888 54.3194C8.14663 63.6356 27.2816 63.4725 36.4118 59.731C45.5419 55.9895 60.2658 42.2772 56.448 32.961C52.6303 23.6449 32.4513 24.0455 23.3211 27.787Z" fill="#F2EDE6" stroke="#B69D86" stroke-width="2"/>
<path d="M49.9448 34.8158C50.4558 34.6064 51.0399 34.8509 51.2493 35.3619C51.4587 35.873 51.2142 36.457 50.7032 36.6664L49.9448 34.8158ZM42.4614 40.0439C41.9504 40.2533 41.3663 40.0088 41.1569 39.4978C40.9475 38.9867 41.192 38.4027 41.703 38.1933L42.4614 40.0439ZM50.7032 36.6664L42.4614 40.0439L41.703 38.1933L49.9448 34.8158L50.7032 36.6664Z" fill="#B69D86"/>
<path d="M37.581 39.8816C38.092 39.6722 38.6761 39.9167 38.8855 40.4278C39.0949 40.9388 38.8504 41.5229 38.3394 41.7323L37.581 39.8816ZM13.6141 51.8647C13.103 52.0741 12.519 51.8296 12.3096 51.3186C12.1001 50.8075 12.3446 50.2235 12.8557 50.0141L13.6141 51.8647ZM38.3394 41.7323L13.6141 51.8647L12.8557 50.0141L37.581 39.8816L38.3394 41.7323Z" fill="#B69D86"/>
<g clip-path="url(#clip0_2_2905)">
<path d="M24.8439 24.1663C14.0043 28.6083 -2.23685 44.606 2.2957 55.6664C6.82825 66.7268 29.5459 66.5332 40.3855 62.0912C51.225 57.6491 68.7057 41.3695 64.1732 30.3091C59.6406 19.2487 35.6834 19.7243 24.8439 24.1663Z" fill="#F2EDE6" stroke="#B69D86" stroke-width="2"/>
<path d="M56.5236 32.6843C57.0347 32.4748 57.6187 32.7193 57.8281 33.2304C58.0376 33.7414 57.7931 34.3255 57.282 34.5349L56.5236 32.6843ZM47.4971 38.5447C46.9861 38.7542 46.4021 38.5096 46.1926 37.9986C45.9832 37.4876 46.2277 36.9035 46.7388 36.6941L47.4971 38.5447ZM57.282 34.5349L47.4971 38.5447L46.7388 36.6941L56.5236 32.6843L57.282 34.5349Z" fill="#B69D86"/>
<path d="M41.8447 38.6987C42.3557 38.4893 42.9398 38.7338 43.1492 39.2449C43.3586 39.7559 43.1141 40.34 42.6031 40.5494L41.8447 38.6987ZM13.2484 52.5789C12.7374 52.7883 12.1533 52.5438 11.9439 52.0328C11.7345 51.5217 11.979 50.9377 12.49 50.7283L13.2484 52.5789ZM42.6031 40.5494L13.2484 52.5789L12.49 50.7283L41.8447 38.6987L42.6031 40.5494Z" fill="#B69D86"/>
</g>
<path fill-rule="evenodd" clip-rule="evenodd" d="M53.4803 13.1122C46.3933 13.1122 39.5965 15.946 34.5852 20.9902C29.574 26.0345 26.7587 32.8759 26.7587 40.0095C26.7587 47.1432 29.574 53.9846 34.5852 59.0289C39.5965 64.0731 46.3933 66.9069 53.4803 66.9069C60.5673 66.9069 67.364 64.0731 72.3753 59.0289C77.3866 53.9846 80.2019 47.1432 80.2019 40.0095C80.2019 32.8759 77.3866 26.0345 72.3753 20.9902C67.364 15.946 60.5673 13.1122 53.4803 13.1122ZM32.2234 18.6128C37.861 12.9381 45.5074 9.75 53.4803 9.75C61.4532 9.75 69.0995 12.9381 74.7372 18.6128C80.3749 24.2876 83.5421 31.9842 83.5421 40.0095C83.5421 46.8346 81.2514 53.4219 77.0986 58.73C76.4484 59.5612 76.4754 60.7548 77.2185 61.504L88.5622 72.9427C89.2108 73.5968 89.2099 74.6517 88.5601 75.3046C87.9043 75.9635 86.8374 75.9626 86.1828 75.3024L74.8794 63.9044C74.1276 63.1463 72.917 63.1184 72.0804 63.7817C66.8066 67.9628 60.2616 70.2691 53.4803 70.2691C45.5074 70.2691 37.861 67.081 32.2234 61.4063C26.5857 55.7315 23.4185 48.0349 23.4185 40.0095C23.4185 31.9842 26.5857 24.2876 32.2234 18.6128Z" fill="#FD9F32"/>
<defs>
<clipPath id="clip0_2_2905">
<rect x="25.2349" y="12.75" width="55.5" height="55.5" rx="27.75" fill="white"/>
</clipPath>
</defs>
</svg>
