<svg width="32" height="32" viewBox="0 0 32 32" fill="none" xmlns="http://www.w3.org/2000/svg">
<path fill-rule="evenodd" clip-rule="evenodd" d="M7.5 22.5C7.5 21.9477 7.94772 21.5 8.5 21.5H11.5C12.0523 21.5 12.5 21.9477 12.5 22.5V27H11.5V22.5L8.5 22.5V27H7.5V22.5Z" fill="#FD9F32"/>
<path fill-rule="evenodd" clip-rule="evenodd" d="M13.9717 5.43762C14.0046 4.91059 14.4417 4.5 14.9697 4.5H19.5375C20.0596 4.5 20.4938 4.90162 20.5345 5.42211L21.7485 20.9611L20.7515 21.0389L19.5375 5.5L14.9697 5.5L14.249 17.0312L13.251 16.9688L13.9717 5.43762Z" fill="#664B42"/>
<path fill-rule="evenodd" clip-rule="evenodd" d="M28.5 21.5H17V20.5H28.5C29.0523 20.5 29.5 20.9477 29.5 21.5V26.5C29.5 27.0523 29.0523 27.5 28.5 27.5H15.5V26.5H28.5V21.5Z" fill="#664B42"/>
<path fill-rule="evenodd" clip-rule="evenodd" d="M23.4591 10.9052C23.508 10.392 23.939 10 24.4546 10H27.5424C28.0604 10 28.4926 10.3955 28.5385 10.9115L29.498 21.7057L28.5019 21.7943L27.5424 11L24.4546 11L23.4977 21.0474L22.5022 20.9526L23.4591 10.9052Z" fill="#664B42"/>
<path fill-rule="evenodd" clip-rule="evenodd" d="M9.14561 13.8307C9.50294 13.5597 9.99706 13.5597 10.3544 13.8308L9.75 14.6274L3 19.7481L3 26.4998H16.5V19.7481L9.75 14.6274L10.3544 13.8308L17.1044 18.9514C17.3536 19.1405 17.5 19.4353 17.5 19.7481V26.4998C17.5 27.0521 17.0523 27.4998 16.5 27.4998H3C2.44772 27.4998 2 27.0521 2 26.4998V19.7481C2 19.4353 2.14639 19.1405 2.39561 18.9514L9.14561 13.8307Z" fill="#FD9F32"/>
</svg>
