<svg width="143" height="183" viewBox="0 0 143 183" fill="none" xmlns="http://www.w3.org/2000/svg">
<path d="M2.17955 22.611C2.26673 22.5238 2.44108 22.3493 2.52826 22.2621C3.83599 20.9539 5.14372 19.4712 6.36426 18.0758C6.62581 17.7269 6.97453 17.3781 7.23608 16.942C7.41044 16.7676 7.5848 16.5059 7.75916 16.3315C8.0207 15.9826 8.28225 15.721 8.5438 15.3721C8.71816 15.1105 8.9797 14.8488 9.15407 14.5872C9.41561 14.3255 9.58998 13.9767 9.85153 13.715C10.1131 13.4534 10.2874 13.1045 10.4618 12.8429C10.6362 12.5812 10.8977 12.2324 11.0721 11.9707C11.8567 10.8369 12.6413 9.61591 13.426 8.48211C14.1234 7.95882 14.8209 7.52274 15.6055 7.34831C15.9542 7.2611 16.2158 7.43553 16.3901 7.78439C21.4467 11.1858 25.6314 16.5931 29.9033 20.9539C34.3495 25.5763 38.7958 30.1115 43.2421 34.7339C48.0371 39.618 52.832 44.5893 57.627 49.4733C59.4578 46.8569 61.2886 44.3276 63.1195 41.7984C63.0323 41.7112 63.0323 41.6239 62.9451 41.5367C62.7707 41.2751 63.2066 41.0134 63.381 41.2751C63.381 41.2751 63.381 41.2751 63.4682 41.3623C63.4682 41.3623 63.4682 41.3623 63.5554 41.2751C63.7297 41.0134 64.1656 41.2751 63.9913 41.5367C63.9041 41.6239 63.9041 41.7112 63.8169 41.7984C64.4272 42.5833 64.9503 43.3682 65.4734 44.1532C65.5605 44.1532 65.6477 44.1532 65.7349 44.2404C68.3504 46.508 70.094 49.8222 72.012 52.6131C73.4069 54.619 74.8018 56.625 76.1095 58.7181C83.9559 48.6884 92.1509 38.9203 100.172 29.0649C104.095 24.1809 108.018 19.384 111.941 14.5C115.69 9.87756 119.352 4.20856 123.972 0.458302C124.059 0.109441 124.321 -0.0649899 124.67 0.0222254C125.367 0.196656 126.152 0.545517 126.849 0.981594C127.459 1.94096 128.244 2.98755 129.116 4.12135C129.29 4.38299 129.552 4.64464 129.726 4.90628C129.988 5.25515 130.249 5.51679 130.511 5.86565C130.685 6.1273 130.947 6.38894 131.121 6.65059C131.383 6.91224 131.557 7.17388 131.819 7.43553C132.08 7.69717 132.342 8.04604 132.516 8.30768C132.69 8.56933 132.865 8.74376 133.126 8.91819C133.388 9.26705 133.737 9.61591 133.998 9.87756L134.085 9.96477C135.306 11.273 136.614 12.5812 137.921 13.8022C138.008 13.8895 138.183 13.9767 138.27 14.1511C138.793 14.5872 139.229 15.0233 139.665 15.4593C139.665 15.4593 139.665 15.4593 139.578 15.4593C137.747 20.2562 132.342 24.4425 129.029 28.1056C124.147 33.4257 119.264 38.7458 114.295 43.9788C109.762 48.8628 105.228 53.7469 100.608 58.6309C96.5972 62.9045 92.7612 67.4397 88.5765 71.4516C88.4893 71.8004 88.2278 72.0621 87.879 72.0621C87.7918 72.1493 87.7047 72.2365 87.6175 72.3237C87.3559 72.0621 87.0072 71.7132 86.7457 71.4516C85.1764 69.8817 83.5199 68.3118 81.8635 66.8292C81.7763 67.3525 81.5148 67.7013 81.2532 68.1374C83.084 71.1027 84.9149 74.1553 86.6585 77.2078C86.7457 77.2078 86.8329 77.295 86.8329 77.295C96.51 86.4526 106.013 95.8719 115.603 105.117C120.223 109.565 124.757 114.013 129.377 118.461C133.737 122.734 139.142 126.921 142.542 131.979C142.891 132.066 143.065 132.328 142.978 132.764C142.803 133.549 142.368 134.247 141.844 134.944C140.624 135.729 139.491 136.514 138.27 137.386C138.008 137.561 137.747 137.735 137.485 137.91C137.137 138.171 136.788 138.433 136.439 138.607C136.178 138.782 135.916 139.043 135.567 139.218C135.306 139.392 134.957 139.654 134.696 139.828C134.347 140.09 134.085 140.264 133.737 140.526C133.475 140.701 133.301 140.875 133.039 141.049C132.69 141.311 132.342 141.66 131.993 141.922L131.906 142.009C130.511 143.23 129.116 144.451 127.721 145.759C127.634 145.846 127.459 146.021 127.372 146.108C126.936 146.544 126.5 146.98 126.065 147.503C126.065 147.503 126.065 147.503 126.065 147.416C121.357 145.149 117.608 139.305 114.208 135.555C109.239 130.06 104.269 124.566 99.2998 119.071C95.8997 115.321 92.5868 111.571 89.1867 107.733C90.4073 117.065 91.1047 126.572 92.1509 135.991C92.8484 142.358 93.8946 148.899 94.6792 155.44C95.0279 155.876 95.2895 156.399 95.6382 156.835C95.7254 156.923 95.7254 157.01 95.8126 157.097C95.8997 156.835 96.0741 156.574 96.2485 156.312C96.4228 156.05 96.9459 156.138 96.9459 156.487C96.9459 157.184 96.8587 157.795 96.7715 158.492C97.2946 159.277 97.8177 160.062 98.2536 160.847C99.7357 160.847 101.131 160.847 102.613 160.847C101.567 159.713 100.433 158.58 99.387 157.446C98.3408 156.399 97.1203 155.353 96.4228 154.044C96.3356 153.957 96.4228 153.783 96.51 153.696C95.9869 153.696 95.4638 153.696 94.9407 153.696C94.8536 152.823 94.7664 151.864 94.592 150.992C97.9921 150.73 101.479 150.73 104.879 150.643C107.844 150.643 110.982 150.381 113.946 150.73C114.121 150.381 114.469 150.207 114.818 150.469C115.08 150.643 115.428 150.905 115.69 151.079C115.864 151.166 116.126 151.166 116.3 151.254C116.562 151.341 116.649 151.602 116.562 151.864C117.869 152.998 119.09 154.306 120.311 155.44C122.229 157.359 124.147 159.19 125.977 161.109C126.065 161.283 125.89 161.458 125.803 161.371C123.885 159.888 121.967 158.405 120.136 156.835C118.393 155.44 116.475 154.045 114.905 152.475C113.772 152.736 112.639 152.911 111.505 152.998C114.557 155.44 117.434 158.144 120.311 160.847C122.316 160.935 124.234 161.109 126.152 161.458V161.545C124.844 161.894 123.449 162.068 121.967 162.243C122.403 164.161 122.054 166.429 121.705 168.348C121.705 168.348 121.705 168.348 121.705 168.435C120.921 168.871 120.223 169.046 119.352 169.046C118.916 168.697 118.654 168.173 118.828 167.563C119.177 165.906 119.613 163.987 120.485 162.417C117.346 162.679 114.208 162.766 111.157 162.853C108.89 162.94 106.71 163.115 104.444 163.202C104.356 164.249 104.269 165.208 104.008 166.255C104.008 166.342 103.833 166.342 103.833 166.255C103.92 165.295 104.095 164.249 104.269 163.289C103.223 163.377 102.264 163.377 101.218 163.377C101.131 164.772 100.956 166.08 100.782 167.476C100.782 167.65 100.433 167.65 100.52 167.476C100.608 166.08 100.869 164.772 101.043 163.464C99.387 163.551 97.6434 163.551 95.9869 163.638C95.9869 164.772 95.9869 165.819 95.9869 166.952C95.9869 167.04 95.8126 167.04 95.8126 166.952C95.8126 165.819 95.8126 164.772 95.8126 163.638C95.6382 163.638 95.551 163.638 95.3766 163.638C95.4638 165.208 95.4638 166.865 95.4638 168.435C95.8126 168.522 96.0741 168.522 96.4228 168.609C96.51 168.609 96.51 168.697 96.4228 168.697C96.0741 168.697 95.8126 168.609 95.4638 168.609C95.4638 169.743 95.3766 170.877 95.2895 172.098C95.2895 172.36 94.9407 172.36 94.8536 172.185C94.5048 170.964 94.1561 169.743 93.8946 168.522C91.8022 168.348 89.6227 168.173 87.6175 167.65C87.4431 167.563 87.4431 167.301 87.7047 167.301C89.7098 167.388 91.8022 167.737 93.8074 168.086C93.5458 166.952 93.2843 165.819 93.1099 164.685C90.6688 164.51 88.2278 164.249 85.8739 163.638C85.6995 163.551 85.6995 163.289 85.961 163.289C88.3149 163.464 90.756 163.9 93.1099 164.423C92.9356 163.464 92.7612 162.417 92.5868 161.458C90.5817 161.371 88.5765 161.196 86.5713 161.022C86.3969 161.022 86.3969 160.76 86.5713 160.76C88.5765 160.935 90.5817 161.022 92.5868 161.371C92.4997 160.935 92.4997 160.498 92.4125 160.15C89.1868 159.713 85.961 159.452 82.7353 159.103C76.807 158.492 70.8786 158.231 64.8631 158.318C58.3245 158.318 51.7859 158.929 45.3344 159.801V159.888C48.8217 159.539 52.6577 160.062 56.0578 160.15C61.5502 160.237 67.0426 160.237 72.5351 160.237C72.6223 160.237 72.6223 160.324 72.5351 160.324C67.5657 160.498 62.6835 160.76 57.7142 161.022C53.791 161.196 49.2576 162.156 45.2472 161.807C45.2472 162.068 45.2472 162.417 45.1601 162.679C53.3551 162.156 62.0733 163.202 70.2683 163.289C70.3555 163.289 70.3555 163.377 70.2683 163.377C62.0733 163.551 53.3551 164.685 45.0729 164.249C45.0729 164.685 44.9857 165.121 44.9857 165.557C53.3551 165.47 61.8989 165.557 70.2683 166.08C61.8989 166.778 53.3551 166.952 44.8985 166.952C44.8985 167.301 44.8113 167.737 44.8113 168.086C47.9499 167.912 51.1756 168.173 54.3141 168.261C59.4578 168.348 64.6015 168.261 69.6581 168.522C69.7453 168.522 69.7453 168.609 69.6581 168.609C65.1246 168.958 60.5912 169.046 55.9706 169.22C52.2218 169.394 48.3858 169.83 44.637 169.656C44.637 170.005 44.5498 170.441 44.5498 170.79C47.0781 170.703 49.6935 170.877 52.2218 170.877C56.9296 170.877 61.6374 170.877 66.3452 170.79C68.176 170.615 70.0068 170.528 71.9248 170.528C72.5351 166.952 74.2787 162.417 78.0275 162.417C82.7353 162.417 81.5148 167.388 80.8173 170.703C83.084 170.79 85.2636 170.964 87.4431 171.139C89.2739 171.051 91.1047 170.964 92.8484 170.79C93.0227 170.79 93.0227 171.051 92.8484 171.051C91.8894 171.139 90.9304 171.226 89.9714 171.313C90.2329 171.313 90.2329 171.662 89.9714 171.662C86.4841 172.011 82.9097 172.447 79.248 172.709C79.248 172.796 79.248 172.883 79.248 172.97C79.684 175.063 76.3711 175.325 76.4582 173.319C76.4582 173.145 76.4582 173.057 76.4582 172.883C76.1967 172.883 75.9351 172.883 75.6736 172.883C75.2377 175.151 71.7504 175.238 71.5761 172.97C68.2632 172.97 64.9503 172.796 61.8117 172.36C61.2886 172.272 61.2886 171.4 61.8117 171.313C62.7707 171.139 63.6425 171.051 64.6015 170.964C61.0271 171.226 57.3655 171.488 53.791 171.749C50.7397 171.924 47.4268 172.534 44.2882 172.534C44.2882 172.97 44.2011 173.494 44.2011 173.93C46.9037 173.581 49.7807 173.755 52.3961 173.668C56.7552 173.494 61.1143 173.581 65.3862 173.232C65.4734 173.232 65.4734 173.319 65.3862 173.319C61.0271 173.581 56.668 174.191 52.3961 174.802C51.2628 174.976 50.1294 175.151 48.996 175.238C50.5653 175.151 52.2218 175.151 53.7039 175.325C57.0168 174.802 60.3297 174.366 63.6426 173.842C63.7297 173.842 63.7297 173.93 63.6426 174.017C61.2015 174.54 58.8476 175.151 56.4937 175.761C57.4527 175.936 58.3245 176.197 59.2835 176.546C59.545 176.633 59.545 177.069 59.1963 177.069C57.1039 176.808 55.0116 176.633 53.0064 176.633C52.7449 176.72 52.5705 176.72 52.3089 176.808C49.5191 177.505 46.6421 178.726 43.678 178.814C43.5036 179.511 43.1549 180.122 42.6318 180.558C46.1191 180.122 49.8679 180.384 53.1808 180.384C53.7039 180.384 53.791 181.168 53.2679 181.256C48.8217 182.041 43.5036 183.523 39.0573 182.651C38.3599 182.564 38.5343 181.605 39.0573 181.43C39.1445 181.43 39.2317 181.43 39.2317 181.343C39.1445 182.215 40.3651 182.477 40.8882 181.866C41.0625 181.605 41.2369 181.43 41.4113 181.168C40.2779 181.43 38.9702 181.168 38.3599 180.209C37.4881 180.645 36.6163 181.081 35.7445 181.43C35.3085 181.692 34.6983 181.081 35.1342 180.645C35.2214 180.558 35.3085 180.471 35.3957 180.384C34.4367 180.471 33.4777 180.645 32.5187 180.732C32.5187 181.866 31.9085 183 30.4264 183C28.4212 183 27.8981 180.82 28.6827 179.599C28.1596 173.93 28.334 168.261 28.7699 162.592C27.9853 162.766 27.2878 162.853 26.5032 163.028C26.6776 162.156 26.8519 161.283 27.1135 160.411C27.2006 160.411 27.2878 160.324 27.375 160.324C27.4622 159.539 27.5494 158.841 27.6366 158.056C27.6366 157.969 27.7237 157.882 27.7237 157.795C27.7237 157.708 27.7237 157.62 27.7237 157.62C27.7237 157.62 27.7237 157.62 27.7237 157.533C27.8109 157.271 27.8109 157.01 27.8981 156.748C28.334 156.487 28.8571 156.225 29.3802 156.05C29.3802 155.789 29.4674 155.527 29.4674 155.178C30.1648 149.509 30.9495 143.579 32.5187 137.91C29.0315 142.096 25.5442 146.282 22.0569 150.469C21.7954 150.73 21.5339 150.905 21.1851 150.818C20.8364 150.992 20.4005 150.992 20.0518 150.818C14.5593 147.503 9.76433 142.183 5.6668 137.386C5.84116 136.95 5.92835 136.601 6.10271 136.165C6.10271 136.078 6.18988 135.991 6.18988 135.991V135.904C6.18988 135.816 6.27707 135.729 6.27707 135.555C6.45143 135.293 6.71297 135.032 6.88734 134.77C8.36942 132.851 9.85151 131.02 11.4208 129.188C11.5951 128.926 11.7695 128.665 12.0311 128.49C17.3491 122.036 22.8416 115.67 28.4212 109.477V109.39C28.5084 109.303 28.5956 109.216 28.5956 109.129C28.5956 109.129 28.5956 109.129 28.6827 109.129C29.7289 107.908 30.8623 106.774 31.9085 105.553C32.8675 104.593 33.8264 103.547 34.7854 102.587C34.6983 102.5 34.6983 102.413 34.6983 102.239V102.151C34.7854 101.803 34.7854 101.454 34.8726 101.192C34.7854 101.279 34.6111 101.366 34.4367 101.454C33.129 101.803 31.9085 101.628 30.7751 100.93C30.5136 100.756 30.3392 100.494 30.3392 100.233C30.252 100.233 30.252 100.233 30.1648 100.233C29.6417 100.407 29.1187 100.494 28.5956 100.669C27.6366 100.843 26.5904 99.7093 27.1135 98.9244C27.1135 98.75 27.1135 98.6628 27.2006 98.4883C31.2982 90.639 35.5701 82.964 40.1035 75.3763C40.0163 75.3763 40.0163 75.3763 39.9292 75.3763C39.4061 75.2891 39.5804 74.5041 40.0163 74.5041C40.1907 74.5041 40.4522 74.5041 40.6266 74.4169C42.2831 71.7132 43.9395 69.0096 45.596 66.3059C44.9857 65.6954 44.2882 65.1721 43.678 64.5616C38.6214 60.0264 33.4777 55.4912 28.4212 50.8688C22.9287 45.8975 17.4363 40.9262 11.9439 35.9549C8.19507 32.5535 2.26672 28.8033 0.0871763 24.0937C0.0871763 24.0937 0.0871846 24.0937 2.99432e-06 24.0937C1.30773 23.4832 1.74364 23.0471 2.17955 22.611ZM106.972 160.76C104.792 158.841 102.526 156.835 100.695 154.655C100.608 154.568 100.695 154.306 100.869 154.393C103.31 156.225 105.49 158.58 107.669 160.76C108.367 160.76 109.064 160.76 109.762 160.76C113.162 160.76 116.736 160.673 120.223 160.847C117.172 158.318 114.034 155.876 111.244 153.085C110.285 153.172 109.239 153.172 108.28 153.26C111.069 155.266 113.598 157.882 116.126 160.237C116.126 160.237 116.126 160.324 116.039 160.324C113.336 158.056 110.198 155.963 107.756 153.434V153.347C107.408 153.347 107.059 153.347 106.71 153.434C106.013 153.434 105.228 153.521 104.531 153.521C107.059 155.702 109.413 158.231 111.767 160.498C111.854 160.586 111.767 160.586 111.68 160.586C109.151 158.231 106.536 156.05 104.182 153.521C101.828 153.608 99.387 153.783 97.0331 153.783C98.2536 154.655 99.1255 155.963 99.9973 157.097C101.043 158.318 102.09 159.539 103.049 160.847C104.356 160.76 105.664 160.76 106.972 160.76ZM95.551 162.853C95.551 162.156 95.6382 161.458 95.551 160.76H95.7254C95.6382 160.673 95.4638 160.498 95.3766 160.411C95.4638 161.283 95.4638 162.068 95.551 162.853ZM95.3766 160.237C95.551 160.411 95.7254 160.586 95.8997 160.847C96.6844 160.847 97.469 160.847 98.2536 160.847L96.6844 159.103C96.2485 159.539 95.2895 159.19 95.4638 158.405C95.551 158.231 95.551 158.056 95.6382 157.882L95.1151 157.359L95.0279 157.271C95.2023 158.231 95.2895 159.19 95.3766 160.237ZM79.1609 170.528C79.5968 170.528 80.1199 170.528 80.5558 170.615C80.4686 169.743 80.3814 168.958 80.3814 168.173C80.2942 166.952 80.4686 164.946 78.725 165.208C78.5506 165.208 78.2891 165.295 78.1147 165.382C78.6378 167.04 78.8993 168.784 79.1609 170.528ZM76.7198 170.441C76.7198 169.394 76.7198 168.435 76.7198 167.388C76.4582 168.348 76.2839 169.482 76.1967 170.441C76.3711 170.441 76.5454 170.441 76.7198 170.441ZM28.5084 157.882C28.5956 158.58 28.6827 159.365 28.6827 160.062C29.0315 159.975 29.293 159.888 29.6417 159.801C29.6417 159.626 29.6417 159.452 29.7289 159.365C29.6417 159.365 29.5546 159.277 29.6417 159.19C29.6417 159.016 29.7289 158.754 29.8161 158.58C29.9033 158.144 29.9033 157.708 29.9905 157.184C29.3802 157.446 28.9443 157.62 28.5084 157.882ZM12.9029 13.0173C12.3798 13.6278 11.9439 14.2383 11.4208 14.8488C13.3388 15.721 14.5593 17.2036 16.2158 18.8607C16.3901 19.0352 16.5645 19.2096 16.7389 19.384C17.6107 18.4247 18.4825 17.4653 19.3543 16.5059C17.785 14.6744 16.2158 12.9301 14.7337 11.0986C14.2106 11.7091 13.6003 12.3196 12.9029 13.0173ZM63.4682 74.5913C65.1246 74.3297 66.7811 74.4169 68.4375 74.5041C68.176 74.3297 67.9145 74.1553 67.6529 73.8936C66.9555 73.3703 66.258 72.847 65.5605 72.3237C65.2118 72.3237 64.8631 72.3237 64.5144 72.2365C64.1656 72.2365 64.1656 71.7132 64.5144 71.7132C64.6015 71.7132 64.7759 71.7132 64.8631 71.7132C64.6887 71.5388 64.6015 71.4516 64.4272 71.2772C63.2066 72.4982 61.9861 73.8064 60.8527 75.0274C61.5502 75.0274 62.2476 75.0274 63.0323 75.1146C63.0323 74.9402 63.2066 74.6786 63.4682 74.5913ZM65.1246 59.9392C65.299 59.9392 65.3862 59.9392 65.5605 59.9392C65.1246 59.5031 64.6887 59.067 64.2528 58.5437C63.7297 58.4565 63.2938 58.2821 62.7707 58.1949C62.5964 58.4565 62.3348 58.8054 62.1605 59.067C62.9451 59.7647 63.6425 60.5497 64.4272 61.2474C65.299 61.2474 66.1708 61.3346 66.9554 61.3346C66.7811 61.1602 66.6067 60.9857 66.4324 60.8113C65.9964 60.6369 65.5605 60.5497 65.1246 60.3752C64.8631 60.288 64.8631 59.9392 65.1246 59.9392ZM30.6007 32.8152C32.3444 34.4723 34.0008 36.2166 35.7445 37.8737C36.2675 37.2632 36.8778 36.6527 37.4009 36.0422C35.6573 34.2979 33.8265 32.4663 32.17 30.6348C31.6469 31.3325 31.1238 32.1175 30.6007 32.8152ZM31.6469 30.0243C29.6417 27.8439 27.6366 25.6635 25.6314 23.4832C25.0211 24.3553 24.4108 25.2275 23.7134 26.0124C25.8058 28.0183 27.8109 30.0243 29.9033 32.1175C30.5136 31.4197 31.0366 30.722 31.6469 30.0243ZM36.5291 38.5714C37.1394 39.1819 37.7496 39.7924 38.3599 40.4029L41.2369 43.1938C41.76 42.4961 42.2831 41.8856 42.8062 41.1879C41.76 40.2285 40.7138 39.1819 39.7548 38.2225C39.2317 37.6992 38.6214 37.0887 38.0984 36.5654C37.4881 37.2632 36.965 37.9609 36.5291 38.5714ZM41.76 43.8043L46.8165 48.7756C47.4268 48.1651 48.037 47.5546 48.5601 46.9441C46.7293 45.1998 44.9857 43.4555 43.1549 41.7112C42.8062 42.4089 42.2831 43.1066 41.76 43.8043ZM47.6883 49.5605L52.6577 54.4446C53.1808 53.7469 53.791 53.0491 54.3141 52.4386C52.6577 50.8688 51.0012 49.2117 49.3448 47.6418C48.8217 48.2523 48.2114 48.95 47.6883 49.5605ZM51.873 57.2355C51.2628 58.1949 50.6525 59.2414 50.0422 60.2008L50.2166 60.3752C50.8269 59.4159 51.4371 58.4565 52.1346 57.4971L51.873 57.2355ZM53.2679 55.0551L53.4423 55.2295C53.9654 54.5318 54.4013 53.7469 54.9244 53.0491L54.8372 52.9619C54.3141 53.6597 53.791 54.3574 53.2679 55.0551ZM54.9244 54.8807C55.5347 54.7935 56.1449 54.7935 56.7552 54.7935C56.4065 54.4446 56.0578 54.0957 55.709 53.7469C55.3603 54.0957 55.1859 54.4446 54.9244 54.8807ZM54.4885 55.4912C54.4013 55.6656 54.3141 55.84 54.2269 55.9273L59.1091 60.7241C59.7194 60.0264 60.2425 59.4159 60.8527 58.7181C59.8066 57.6716 58.6732 56.625 57.627 55.5784C56.5808 55.6656 55.5347 55.5784 54.4885 55.4912ZM66.6939 64.3871C65.8221 63.515 64.9503 62.73 64.0785 61.8579C62.8579 61.8579 61.5502 61.9451 60.3296 61.9451L62.5964 64.2127C63.9041 64.2999 65.299 64.3871 66.6939 64.3871ZM63.1195 64.736L65.5605 67.178C65.6477 67.0908 65.8221 67.0036 65.9093 66.9164C66.4324 66.3931 67.0426 65.8698 67.6529 65.4337C67.3914 65.1721 67.0426 64.9104 66.7811 64.5616C65.5605 64.6488 64.34 64.736 63.1195 64.736ZM63.4682 61.2474C62.9451 60.7241 62.3348 60.2008 61.8117 59.5903C61.463 60.1136 61.0271 60.6369 60.6784 61.1602C61.5502 61.2474 62.5092 61.2474 63.4682 61.2474ZM59.545 64.8232C59.0219 64.8232 58.4988 64.8232 57.9757 64.8232C57.5398 65.4337 57.1039 66.0442 56.7552 66.6547C57.0167 66.9164 57.3655 67.178 57.7142 67.5269C59.2835 67.4397 60.8527 67.5269 62.422 67.6141L59.545 64.8232ZM58.8476 64.1255L58.6732 63.9511C58.586 64.0383 58.586 64.1255 58.4988 64.1255C58.6732 64.1255 58.7604 64.1255 58.8476 64.1255ZM61.2886 58.2821C61.7246 57.846 62.1605 57.3227 62.5092 56.8866C62.0733 56.4505 61.6374 55.9273 61.1143 55.4912C60.2425 55.5784 59.3707 55.6656 58.4988 55.6656C59.4578 56.4505 60.3296 57.4099 61.2886 58.2821ZM64.9503 61.8579C65.9965 62.9045 67.1298 63.9511 68.176 64.9977C68.5247 64.736 68.8734 64.5616 69.2222 64.2999C69.3094 64.2127 69.4837 64.1255 69.5709 64.1255C68.7863 63.2533 67.9144 62.4684 67.1298 61.5963C67.1298 61.6835 67.0426 61.7707 66.9554 61.7707C66.258 61.7707 65.6477 61.8579 64.9503 61.8579ZM61.2886 70.7539C62.0733 70.0561 62.9451 69.4456 63.6426 68.9223L63.0323 68.3118C61.6374 68.399 60.1553 68.4863 58.7604 68.4863C59.7194 69.2712 60.504 70.0561 61.2886 70.7539ZM59.9809 71.4516C58.7604 71.4516 57.4527 71.3644 56.2321 71.1899C57.1039 71.9749 57.8886 72.7598 58.6732 73.5448C59.1091 72.9342 59.6322 72.3237 60.2425 71.7132C60.1553 71.626 60.0681 71.5388 59.9809 71.4516ZM59.3707 70.7539C58.6732 69.9689 57.9758 69.2712 57.1911 68.4863C56.668 68.4863 56.1449 68.399 55.6218 68.3118C55.2731 68.7479 55.0116 69.184 54.6628 69.6201C55.0116 69.9689 55.3603 70.2306 55.709 70.5794C56.8424 70.5794 58.0629 70.5794 59.3707 70.7539ZM55.1859 65.0849C55.3603 64.8232 55.6218 64.6488 55.7962 64.3871C56.3193 63.7766 56.8424 63.2533 57.3655 62.6428L56.4937 61.8579C56.0577 61.8579 55.709 61.8579 55.2731 61.7707C54.3141 61.7707 53.2679 61.6835 52.3089 61.5963C52.0474 61.5963 52.0474 61.073 52.3089 61.073C53.3551 60.8985 54.4013 60.8113 55.4475 60.8113L52.7449 58.1949C52.1346 59.1542 51.5243 60.1136 50.914 61.1602C52.3089 62.4684 53.791 63.7766 55.1859 65.0849ZM50.6525 65.4337C51.6987 65.1721 52.832 65.1721 53.9654 65.2593C52.832 64.1255 51.6987 62.9917 50.4781 61.7707C49.8679 62.6428 49.3448 63.6022 48.7345 64.5616C50.0422 65.6954 51.3499 66.9164 52.6577 68.0502C53.1808 67.4397 53.6167 66.742 54.1398 66.1314C52.9192 66.2187 51.6115 66.2187 50.4781 65.957C50.3909 65.8698 50.391 65.4337 50.6525 65.4337ZM49.6935 60.8985C49.6063 60.8113 49.6063 60.8113 49.5191 60.7241C48.9089 61.5963 48.2114 62.4684 47.4268 63.2534C47.6011 63.4278 47.7755 63.515 47.8627 63.6894C48.5601 62.8173 49.0832 61.8579 49.6935 60.8985ZM51.0012 56.3633L46.1191 51.5665C45.3344 52.4386 44.637 53.398 43.8523 54.2702C45.5088 55.84 47.078 57.4099 48.7345 58.9798C49.4319 58.1076 50.2166 57.2355 51.0012 56.3633ZM45.1601 50.6071L40.3651 45.8975C39.6676 46.8569 38.9702 47.8162 38.2727 48.8628C39.7548 50.3455 41.3241 51.7409 42.8062 53.2236C43.5036 52.3514 44.2882 51.4793 45.1601 50.6071ZM39.5804 45.1998L36.5291 42.1472C36.006 41.6239 35.4829 41.1006 34.9598 40.5774C34.1752 41.5367 33.3906 42.4961 32.6931 43.4555C33.6521 44.4148 34.6983 45.3742 35.6573 46.3336C36.2675 46.8569 36.7906 47.4674 37.4009 47.9907C38.0983 47.0313 38.883 46.0719 39.5804 45.1998ZM34.088 39.7924C32.4315 38.1353 30.7751 36.5654 29.2058 34.9084C28.5084 35.9549 27.7237 37.0015 26.9391 38.0481C28.5084 39.5308 30.0776 41.0134 31.6469 42.5833C32.4315 41.6239 33.3034 40.6646 34.088 39.7924ZM28.334 34.1234C26.3288 32.1175 24.2365 30.1115 22.2313 28.1056C21.4467 29.1521 20.662 30.2859 19.8774 31.3325C21.8826 33.2513 23.8878 35.17 25.9801 37.0887C26.7647 36.0422 27.5494 35.0828 28.334 34.1234ZM23.1031 25.4891C23.8006 24.6169 24.4108 23.832 25.1083 22.9599C23.2775 20.8667 21.4467 18.8607 19.6159 16.6804C18.8312 17.7269 18.0466 18.6863 17.262 19.7329C19.2671 21.7388 21.1851 23.5704 23.1031 25.4891ZM16.303 7.95882C16.303 8.04604 16.2158 8.13325 16.2158 8.22047C16.303 8.22047 16.3901 8.22047 16.4773 8.22047C16.3901 8.13325 16.3901 8.04604 16.303 7.95882ZM16.5645 8.30768C16.3901 8.56933 16.1286 8.91819 15.9542 9.17984C15.6927 9.70313 15.4311 10.2264 14.9952 10.6625C16.5645 12.4068 18.2209 14.2383 19.7902 15.9826C20.3133 15.3721 20.8364 14.7616 21.4467 14.1511C19.6159 12.3196 17.9594 10.4008 16.5645 8.30768ZM21.5339 14.3255C21.0108 14.936 20.5748 15.6338 20.0518 16.2443C21.8826 18.3374 23.8006 20.3434 25.6314 22.4366C26.2417 21.6516 26.8519 20.9539 27.4622 20.169C25.5442 18.2502 23.4518 16.3315 21.5339 14.3255ZM27.7237 20.605C27.1135 21.39 26.5904 22.1749 25.9801 22.9599C27.9853 25.1402 29.9905 27.3206 31.9956 29.501C32.6059 28.7161 33.3034 27.9311 33.9136 27.1462C31.9084 24.9658 29.8161 22.7854 27.7237 20.605ZM34.4367 27.4951C33.8264 28.3672 33.2162 29.1521 32.6059 30.0243C34.3495 31.8558 36.0932 33.6873 37.924 35.5189C38.6214 34.7339 39.3189 34.0362 40.0163 33.2513C38.0983 31.3325 36.2675 29.4138 34.4367 27.4951ZM42.1959 35.5189C41.5856 34.9084 40.9753 34.2106 40.3651 33.6001C39.7548 34.3851 39.1445 35.2572 38.4471 36.0422C39.4061 37.0015 40.3651 37.9609 41.4113 38.9203L43.2421 40.6646C43.8523 39.9668 44.4626 39.1819 45.0729 38.397C44.0267 37.5248 43.0677 36.5655 42.1959 35.5189ZM45.2472 38.833C44.7241 39.618 44.1139 40.4029 43.5908 41.1879C45.4216 42.9322 47.2524 44.7637 49.0832 46.508C49.6935 45.8975 50.2166 45.287 50.8269 44.6765C48.996 42.7577 47.1652 40.7518 45.2472 38.833ZM51.3499 45.1126C50.8269 45.7231 50.3038 46.4208 49.7807 47.0313C51.4371 48.6012 53.0936 50.2583 54.75 51.8281C55.1859 51.2176 55.709 50.6943 56.1449 50.0838C54.4885 48.514 52.9192 46.8569 51.3499 45.1126ZM56.4937 50.5199C56.0577 51.1304 55.6218 51.7409 55.1859 52.3514L55.2731 52.4386C55.709 51.9153 56.1449 51.2176 56.4937 50.5199C56.4937 50.6071 56.5808 50.6071 56.4937 50.5199ZM57.1911 51.3048C56.7552 51.9153 56.4065 52.5259 55.9706 53.1364L57.627 54.7062C58.6732 54.7062 59.6322 54.7935 60.6784 54.8807C59.545 53.7469 58.3245 52.5259 57.1911 51.3048ZM76.4582 62.4684C75.848 61.509 75.2377 60.4625 74.5403 59.5031C73.6684 59.4159 72.7966 59.4159 71.8376 59.3287C71.7504 59.1542 71.6633 58.8926 71.5761 58.7181C72.5351 58.8926 73.4941 59.067 74.3659 59.2414C73.6684 58.1076 72.971 57.0611 72.2735 55.9273C71.5761 55.9273 70.8786 55.9273 70.094 55.9273C70.0068 55.6656 69.8324 55.4912 69.7453 55.2295C70.5299 55.3167 71.3145 55.4912 72.012 55.5784C71.7504 55.1423 71.4017 54.619 71.1402 54.1829C70.0068 52.5259 68.6991 50.956 67.4785 49.2117C67.217 49.2117 66.8683 49.2117 66.6067 49.2117C66.5195 49.0372 66.4324 48.8628 66.3452 48.6884C66.6067 48.6884 66.8683 48.7756 67.1298 48.7756C66.258 47.4674 65.4734 46.1591 64.9503 44.7637C64.7759 44.502 64.6015 44.2404 64.4272 43.8915C64.2528 44.502 63.9041 45.1126 63.4682 45.7231H63.5554C64.34 45.9847 63.7297 47.1185 63.1195 46.6824C63.0323 46.5952 62.9451 46.5952 62.8579 46.508C62.6836 46.7696 62.5092 46.9441 62.3348 47.2057C61.8989 47.8162 61.3758 48.3395 60.9399 48.8628C60.6784 49.2117 60.0681 49.2117 59.7194 49.4733C59.7194 49.4733 59.6322 49.4733 59.6322 49.3861C59.8066 48.8628 59.545 48.3395 59.7194 47.9034C60.0681 47.2929 60.4168 46.5952 60.7656 45.9847C61.3758 44.8509 62.0733 43.4555 63.1195 42.7577C63.2938 42.6705 63.4682 42.5833 63.6426 42.5833C63.4682 42.3217 63.2938 42.1472 63.2066 41.8856C61.463 44.502 59.7194 47.1185 57.9757 49.735C59.545 51.3048 61.0271 52.8747 62.5964 54.4446C64.2528 54.2702 65.9965 54.4446 67.6529 54.7062C67.8273 55.0551 68.0016 55.3167 68.176 55.6656C66.5195 55.6656 64.8631 55.5784 63.2938 55.2295C63.9913 56.0145 64.7759 56.7122 65.4734 57.4971C66.7811 57.5843 68.0888 57.846 69.3965 58.1076C69.5709 58.4565 69.7453 58.7181 69.8324 59.067C68.7863 58.9798 67.6529 58.8926 66.6067 58.8054C67.0426 59.2414 67.3914 59.6775 67.8273 60.1136C68.6991 60.288 69.6581 60.4625 70.5299 60.7241C70.7043 61.073 70.7914 61.4218 70.9658 61.7707C70.3555 61.6835 69.6581 61.509 69.0478 61.4218C69.6581 62.0323 70.1812 62.6428 70.7914 63.2534C71.053 63.6022 71.053 63.9511 70.7914 64.2127C71.1402 64.2127 71.4889 64.2127 71.8376 64.2127C71.8376 64.2999 71.9248 64.4744 71.9248 64.5616C71.4017 64.5616 70.8786 64.4744 70.3555 64.4744C69.9196 65.3465 69.2222 66.1314 68.6119 67.0036C68.4375 67.178 68.2632 67.4397 68.176 67.6141C68.7863 68.2246 69.3094 68.9223 69.9196 69.5328C70.3555 69.8817 70.7043 70.3178 71.053 70.7539C71.1402 70.8411 71.2273 70.9283 71.2273 71.0155C71.3145 70.8411 71.4889 70.6666 71.7504 70.4922C72.0992 70.2306 72.5351 70.0561 72.8838 69.8817C72.971 69.7945 73.0582 69.6201 73.1453 69.5328C73.5812 69.0968 74.0172 68.7479 74.3659 68.3118C72.7966 68.3118 71.2274 68.399 69.7453 68.3118C69.6581 68.3118 69.5709 68.1374 69.7453 68.1374C71.3145 68.0502 72.971 68.1374 74.5403 68.2246C74.9762 67.7885 75.4992 67.3525 75.9352 66.9164C75.2377 66.8292 74.5402 66.8292 73.8428 66.742C73.93 66.6547 74.0172 66.4803 74.0172 66.3931C74.7146 66.4803 75.4992 66.5675 76.1967 66.6547C76.807 66.1315 77.3301 65.6954 78.0275 65.2593C77.9403 65.1721 77.8531 64.9977 77.8531 64.9104C76.5454 64.9104 75.1505 64.8232 73.7556 64.8232C73.7556 64.736 73.6684 64.6488 73.6684 64.4744C75.0633 64.5616 76.3711 64.736 77.766 64.8232C77.3301 64.1255 76.8941 63.4278 76.4582 62.7301C75.3249 62.5556 74.1043 62.3812 72.971 62.2068C72.8838 61.9451 72.7966 61.6835 72.7094 61.4218C74.1043 61.7707 75.3249 62.1195 76.4582 62.4684ZM43.5908 114.71C43.7652 114.623 43.9395 114.623 44.2011 114.623C43.7652 114.187 43.2421 113.664 42.8062 113.141L40.2779 116.106C41.5856 115.844 42.8062 115.583 44.1139 115.321C43.9395 115.321 43.8523 115.321 43.678 115.321C43.3292 115.321 43.2421 114.798 43.5908 114.71ZM44.8113 102.587C45.5088 103.285 46.1191 103.896 46.8165 104.593L47.2524 103.983C47.3396 103.372 47.4268 102.675 47.6011 102.064C46.6421 102.326 45.7703 102.5 44.8113 102.587ZM47.7755 101.018C47.9499 100.145 48.1242 99.2733 48.2986 98.4883C48.037 98.4883 47.8627 98.4883 47.6011 98.5756C46.7293 99.6221 45.7703 100.669 44.8985 101.715C45.8575 101.454 46.8165 101.192 47.7755 101.018ZM38.7086 108.867C38.6214 108.954 38.5343 109.041 38.4471 109.216C38.1855 110.437 37.8368 111.658 37.5753 112.879C38.5343 112.617 39.4932 112.443 40.4522 112.181L41.1497 111.396C40.3651 110.524 39.4932 109.652 38.7086 108.867ZM41.76 110.611L44.9857 106.774C43.2421 107.297 41.4112 107.646 39.5804 108.082C40.3651 108.954 41.0625 109.739 41.76 110.611ZM39.1445 107.472H39.2317C40.5394 105.989 41.76 104.506 43.0677 102.936L42.9805 102.849C41.9343 103.024 40.8882 103.111 39.842 103.285C39.5804 104.593 39.2317 105.989 38.883 107.297C38.9702 107.384 39.0573 107.472 39.1445 107.472ZM40.1907 107.123C42.0215 106.512 43.8523 105.902 45.7703 105.466C44.9857 104.768 44.2011 104.07 43.4164 103.372C42.3702 104.593 41.3241 105.902 40.1907 107.123ZM44.7241 110.873C45.2472 110.698 45.8575 110.611 46.3806 110.524C46.4678 109.914 46.555 109.303 46.555 108.605L44.7241 110.873ZM45.1601 111.832C44.637 111.919 44.2011 112.007 43.678 112.094L43.3292 112.443C43.8523 113.053 44.3754 113.751 44.8985 114.362C45.3344 113.838 45.7703 113.402 46.2062 112.879C46.2062 112.53 46.2934 112.181 46.2934 111.832C45.9447 111.832 45.5088 111.832 45.1601 111.832ZM39.6676 116.804C39.3189 117.24 38.9702 117.589 38.7086 118.025C39.2317 118.548 39.6676 119.071 40.1907 119.682C40.3651 119.682 40.4522 119.594 40.6266 119.594C41.0625 119.071 41.4113 118.635 41.8472 118.112C42.3703 117.501 42.9805 116.804 43.5036 116.193C42.1959 116.367 40.9753 116.629 39.6676 116.804ZM40.801 120.292C41.4984 120.99 42.1087 121.775 42.8062 122.473C43.3292 121.775 43.8523 121.164 44.3754 120.467C44.637 120.118 44.8985 119.856 45.1601 119.507C45.1601 119.42 45.16 119.42 45.2472 119.333C43.8523 119.594 42.4574 119.856 41.0625 120.031C40.9753 120.118 40.8882 120.205 40.801 120.292ZM40.3651 120.815C39.0573 122.385 37.7496 123.955 36.5291 125.612C38.0983 125.263 39.6676 124.827 41.2369 124.479C41.5856 124.042 42.0215 123.519 42.3702 123.083C42.3702 122.996 42.4574 122.996 42.4574 122.909C41.76 122.211 41.0625 121.513 40.3651 120.815ZM36.1804 126.048C36.006 126.223 35.8316 126.484 35.7445 126.659C36.3547 127.444 37.0522 128.142 37.6624 128.926C38.6214 127.793 39.4932 126.659 40.4522 125.525C38.9702 125.612 37.5753 125.787 36.1804 126.048ZM35.2214 127.182C34.9598 129.014 34.6983 130.845 34.4367 132.677C35.3957 131.543 36.2675 130.409 37.2265 129.275C36.6163 128.578 35.9188 127.88 35.2214 127.182ZM34.8726 122.473C34.4367 122.996 34.0008 123.519 33.5649 124.042C33.9136 124.479 34.2624 124.915 34.6111 125.263C34.6983 124.391 34.7854 123.432 34.8726 122.473ZM34.5239 126.397C34.0008 125.874 33.4777 125.263 32.9546 124.74C31.1238 126.833 29.293 129.014 27.5494 131.107C28.2468 131.892 28.8571 132.677 29.5545 133.462C31.211 131.281 32.8675 129.101 34.5239 127.008C34.5239 126.833 34.5239 126.659 34.5239 126.397ZM26.9391 131.805C25.2827 133.811 23.539 135.816 21.8826 137.735C22.7544 138.695 23.539 139.567 24.4108 140.526C25.9801 138.346 27.5494 136.165 29.1186 134.072C28.4212 133.287 27.7237 132.59 26.9391 131.805ZM31.2982 123.083C30.4264 122.211 29.5546 121.252 28.7699 120.379C27.0263 122.385 25.1955 124.479 23.4518 126.484C24.3237 127.444 25.1083 128.403 25.9801 129.363C27.7237 127.269 29.4674 125.176 31.2982 123.083ZM31.9956 122.211C33.129 120.815 34.2624 119.507 35.3957 118.112C35.3957 117.937 35.4829 117.676 35.4829 117.501C35.3957 117.414 35.3085 117.24 35.4829 117.24C35.4829 116.978 35.5701 116.716 35.5701 116.455C34.9598 115.844 34.2624 115.234 33.6521 114.623C32.2572 116.193 30.8623 117.763 29.4674 119.42C30.4264 120.292 31.211 121.252 31.9956 122.211ZM35.9188 114.972C36.006 114.449 36.0932 113.838 36.1804 113.315C36.0932 113.315 36.006 113.141 36.0932 113.141H36.1804C36.2675 112.53 36.3547 112.007 36.5291 111.396C35.9188 112.181 35.2214 112.879 34.5239 113.664C35.047 114.1 35.4829 114.536 35.9188 114.972ZM36.0932 121.077C35.8316 122.647 35.5701 124.304 35.3957 125.874C36.8778 124.042 38.3599 122.211 39.842 120.379C39.7548 120.292 39.6676 120.205 39.5804 120.205C38.6214 120.292 37.5753 120.467 36.6163 120.641C37.4881 120.467 38.3599 120.205 39.2317 119.943C38.7958 119.594 38.4471 119.158 38.0112 118.81C37.4009 119.507 36.7906 120.292 36.0932 121.077ZM37.0522 116.193C37.4881 115.67 38.0112 115.059 38.4471 114.536L39.9292 112.704C39.1445 112.792 38.3599 112.966 37.4881 113.053C37.3137 113.838 37.1394 114.623 36.965 115.408C37.0522 115.67 36.965 115.931 37.0522 116.193C36.965 116.193 36.965 116.193 37.0522 116.193ZM37.7496 105.989C38.0983 104.768 38.4471 103.547 38.7958 102.326C38.0984 103.111 37.4009 103.896 36.6163 104.681C37.0522 105.117 37.4009 105.553 37.7496 105.989ZM37.5753 100.582C37.4881 100.494 37.4881 100.494 37.4009 100.407C37.3137 100.669 37.1394 100.843 37.0522 101.105C37.2265 100.93 37.4009 100.756 37.5753 100.582ZM37.2265 100.145C37.1394 99.7966 37.2265 99.3605 37.4881 99.0116C37.7496 98.75 38.0112 98.4883 38.3599 98.2267C38.4471 98.0523 38.5343 97.8778 38.6214 97.7034C38.2727 97.8778 37.8368 97.965 37.4881 98.0523C37.4881 98.1395 37.4009 98.3139 37.4009 98.4011C37.2265 99.2733 37.0522 100.145 36.8778 101.018C36.965 100.756 37.1394 100.494 37.2265 100.145ZM38.5343 98.1395C38.9702 97.7906 39.4061 97.529 39.9292 97.2673C40.1907 97.0929 40.5394 97.3545 40.4522 97.6162C40.3651 97.7906 40.3651 97.8778 40.2779 98.0523C40.7138 97.6162 41.2369 97.1801 41.6728 96.744C41.0625 96.8312 40.4522 97.0057 39.842 97.1801C39.6676 97.3545 39.4061 97.4418 39.0573 97.6162C38.9702 97.7034 38.883 97.7034 38.7958 97.7906C38.7086 97.7906 38.6214 97.9651 38.5343 98.1395ZM40.4522 100.582C40.2779 101.454 40.1035 102.239 39.9292 103.024C40.7138 102.849 41.4984 102.587 42.3702 102.326C41.6728 101.715 41.0625 101.105 40.4522 100.582ZM44.0267 101.803C44.8985 100.756 45.8575 99.7094 46.7293 98.5756C45.0729 98.75 43.5036 99.0988 41.8472 99.6221C42.5446 100.407 43.3292 101.105 44.0267 101.803ZM48.2114 96.8313C47.9499 96.4824 47.6883 96.2207 47.4268 95.9591C47.078 95.9591 46.7293 95.9591 46.2934 96.0463C45.6832 96.0463 44.9857 96.1335 44.3754 96.2207C43.678 97.0057 42.9805 97.7906 42.2831 98.5756C44.1139 97.7034 46.1191 97.0929 48.2114 96.8313ZM47.9499 93.8659C48.8217 93.8659 49.7807 93.8659 50.6525 93.8659C51.6987 92.6449 52.7449 91.3367 53.7039 90.1157C53.0064 89.5052 52.3961 88.8074 51.7859 88.1097C50.2166 89.7668 48.6473 91.4239 47.0781 93.081C47.4268 93.4298 47.6883 93.6043 47.9499 93.8659ZM62.9451 96.5696C62.6836 96.6568 62.422 96.6568 62.2476 96.744C62.422 97.0057 62.5964 97.1801 62.7707 97.4418C63.2066 96.9185 63.6425 96.3952 63.9913 95.8719C63.7297 95.8719 63.5554 95.8719 63.2938 95.8719C62.7707 95.8719 62.2476 95.8719 61.6374 95.8719C61.5502 95.9591 61.5502 95.9591 61.463 96.0463C61.5502 96.1335 61.6374 96.308 61.8117 96.3952C62.1605 96.3952 62.5092 96.308 62.7707 96.308C63.1195 96.2207 63.1195 96.5696 62.9451 96.5696ZM60.8527 97.0057C60.7656 97.0057 60.7656 97.0057 60.6784 97.0057C59.8937 97.9651 59.0219 98.9244 58.2373 99.8838C59.1091 99.8838 59.9809 99.8838 60.7656 99.8838C61.2015 99.3605 61.6374 98.75 62.0733 98.2267C61.7246 97.7906 61.2886 97.3545 60.8527 97.0057ZM58.2373 89.5052C58.6732 89.5052 59.1963 89.5052 59.6322 89.5052L62.2476 86.4526C61.463 85.9293 60.6784 85.406 59.8066 84.8827C58.4988 86.3654 57.1039 87.7609 55.7962 89.2435C56.4937 90.0285 57.1911 90.9006 57.8014 91.6855L59.545 89.5924C59.1091 89.5052 58.6732 89.5052 58.2373 89.5052ZM62.5092 82.7024C62.2476 82.7896 61.9861 82.7896 61.7246 82.8768C62.0733 83.1384 62.422 83.4873 62.7707 83.749C63.1195 83.4001 63.381 83.0512 63.7297 82.7024C63.7297 82.6151 63.7297 82.5279 63.7297 82.4407C63.2938 82.5279 62.9451 82.6151 62.5092 82.7024ZM63.9913 81.9174C64.0785 81.8302 64.0785 81.8302 64.0785 81.743C63.5554 81.8302 63.0323 81.8302 62.5092 81.9174C63.0323 82.0046 63.4682 82.0046 63.9913 81.9174ZM49.6935 108.867C49.5191 108.78 49.3448 108.867 49.2576 108.867C49.2576 109.041 49.2576 109.303 49.1704 109.477C49.3448 109.303 49.5191 109.129 49.6935 108.867ZM49.4319 110.175C49.955 110.175 50.5653 110.088 51.0884 110.088C50.8269 109.826 50.4781 109.565 50.2166 109.303C49.8679 109.565 49.6935 109.914 49.4319 110.175ZM50.2166 108.169C50.8269 107.472 51.4371 106.687 52.0474 105.989C51.1756 106.076 50.3038 106.076 49.4319 106.076C49.4319 106.512 49.3448 106.861 49.3448 107.297C49.6935 107.559 49.955 107.908 50.2166 108.169ZM52.832 105.204C53.4423 104.506 54.0526 103.808 54.6628 103.111C54.6628 103.111 54.6628 103.111 54.5757 103.024C53.4423 103.198 52.2218 103.285 51.0884 103.372L49.7807 104.855C49.7807 104.942 49.7807 105.029 49.6063 105.117H49.5191C49.5191 105.204 49.5191 105.291 49.5191 105.378C50.6525 105.378 51.6987 105.291 52.832 105.204ZM53.0936 96.0463C52.3961 96.308 51.6115 96.5696 50.914 96.744C51.6987 96.8312 52.3961 96.9185 53.1808 97.1801L54.4013 95.6975C54.0526 95.6975 53.6167 95.6975 53.2679 95.6975C53.1808 95.8719 53.1808 96.0463 53.0936 96.0463ZM51.5243 102.936C52.3961 102.849 53.2679 102.762 54.1398 102.675C53.7039 102.239 53.2679 101.803 52.9192 101.366C52.9192 101.366 52.9192 101.366 52.832 101.366L51.5243 102.936ZM52.1346 98.4011C52.0474 98.4011 51.9602 98.4011 51.873 98.4011C51.6987 98.4011 51.6115 98.3139 51.6115 98.2267H51.5243C51.6115 98.4011 51.7859 98.5756 51.873 98.6628L52.1346 98.4011ZM53.9654 100.058C55.0988 99.971 56.3193 99.8838 57.4527 99.8838C58.2373 99.0116 59.0219 98.1395 59.7194 97.1801C58.4117 97.4418 57.1039 97.6162 55.7962 97.8778L53.9654 100.058ZM53.9654 101.279C54.3141 101.715 54.6628 102.151 55.0988 102.587C55.0988 102.587 55.0988 102.587 55.1859 102.587C55.6218 102.064 56.0577 101.541 56.4937 101.018C55.6218 101.105 54.8372 101.192 53.9654 101.279ZM50.3038 100.494L51.0884 99.5349C50.7397 99.1861 50.3909 98.9244 50.0422 98.5756C49.955 99.2733 49.955 99.8838 49.8679 100.582C50.0422 100.582 50.2166 100.582 50.3038 100.494ZM52.5705 95.7847C51.7859 95.7847 51.0884 95.7847 50.3038 95.8719C50.3038 96.0463 50.3038 96.2207 50.2166 96.3952C51.0884 96.2207 51.7859 95.9591 52.5705 95.7847ZM55.709 94.1276L56.668 92.9066C55.8834 92.2088 55.0988 91.5111 54.3141 90.7262C53.3551 91.7728 52.4833 92.8193 51.5243 93.8659C53.0064 93.9531 54.3141 94.0404 55.709 94.1276ZM57.5398 95.7847L56.4065 97.0929C57.7142 96.9185 58.9347 96.744 60.2425 96.5696L60.3296 96.4824C60.0681 96.2207 59.8937 96.0463 59.6322 95.7847C58.9347 95.7847 58.2373 95.7847 57.5398 95.7847ZM57.3655 100.843C56.9296 101.366 56.4065 101.89 55.9706 102.5C56.9296 102.413 57.8886 102.413 58.7604 102.326C59.2835 101.715 59.8066 101.105 60.2425 100.407C59.3707 100.582 58.3245 100.756 57.3655 100.843ZM55.6218 102.936L55.5347 103.024C55.9706 103.547 56.4937 104.157 56.9296 104.681C57.5398 103.896 58.1501 103.198 58.7604 102.413C57.627 102.675 56.668 102.849 55.6218 102.936ZM55.0116 103.634C54.5757 104.157 54.0526 104.681 53.6167 105.291C54.5757 105.291 55.5347 105.291 56.4937 105.291C56.4937 105.291 56.4937 105.291 56.5808 105.204C56.0578 104.681 55.5347 104.157 55.0116 103.634ZM53.0064 105.989C52.3961 106.687 51.7859 107.384 51.1756 108.082C52.3089 107.908 53.3551 107.82 54.4885 107.733C55.0116 107.035 55.6218 106.338 56.1449 105.64C55.0988 105.814 54.0526 105.902 53.0064 105.989ZM50.7397 108.693C51.1756 109.129 51.6115 109.565 52.0474 110.088C52.3089 110.088 52.4833 110.088 52.7449 110.088C53.2679 109.477 53.7039 108.867 54.2269 108.256C53.0064 108.431 51.873 108.518 50.7397 108.693ZM48.996 111.745C48.9089 112.443 48.8217 113.228 48.7345 113.925C49.0832 113.925 49.3448 113.838 49.6935 113.838C50.391 113.053 51.0012 112.181 51.6987 111.396C50.7397 111.483 49.8679 111.571 48.996 111.745ZM55.1859 88.4586C56.4065 86.9759 57.5398 85.4933 58.7604 84.0106C58.2373 83.5745 57.7142 83.0512 57.2783 82.5279C57.1911 82.5279 57.1039 82.5279 57.0167 82.5279C55.8834 83.8362 54.6628 85.1444 53.5295 86.4526C54.0526 87.1503 54.5757 87.7609 55.1859 88.4586ZM60.2425 81.6558C61.6374 81.5686 63.0323 81.4813 64.4272 81.3941C64.8631 80.8708 65.299 80.4348 65.8221 79.9987C63.4682 80.0859 61.0271 80.1731 58.6732 80.2603C59.1963 80.6964 59.7194 81.1325 60.2425 81.6558ZM64.2528 87.8481L62.8579 89.4179C62.9451 89.4179 62.9451 89.5052 62.8579 89.5052H62.7707L59.4578 93.4299C59.7194 93.7787 59.9809 94.0404 60.3296 94.3892C60.7656 94.3892 61.2015 94.4764 61.6374 94.4764C61.7246 94.4764 61.8117 94.4764 61.9861 94.4764L66.4324 89.3307C65.6477 88.8946 64.9503 88.3714 64.2528 87.8481ZM62.7707 94.6509C63.4682 94.6509 64.2528 94.7381 64.9503 94.7381C66.0836 93.3426 67.217 91.9472 68.3504 90.5517C67.8273 90.3773 67.3914 90.1157 66.9554 89.7668C65.5605 91.4239 64.1656 92.9938 62.7707 94.6509ZM86.3098 95.4358C85.6995 94.8253 85.1764 94.302 84.5661 93.6915C84.043 94.1276 83.4328 94.6509 82.9097 95.0869C84.043 95.1742 85.1764 95.2614 86.3098 95.4358ZM84.8277 98.2267C84.9149 98.3139 85.002 98.4883 85.1764 98.5756C85.3508 98.4883 85.6123 98.4011 85.7867 98.2267C85.4379 98.2267 85.1764 98.2267 84.8277 98.2267ZM86.5713 100.145C86.5713 100.145 86.4841 100.145 86.4841 100.058C86.6585 100.233 86.8328 100.494 87.0944 100.669C87.879 99.8838 88.6637 99.1861 89.6227 98.5756C89.5355 98.4883 89.4483 98.4011 89.2739 98.2267C89.0996 98.2267 89.0124 98.2267 88.838 98.2267C88.7508 98.3139 88.7508 98.3139 88.6637 98.4011C88.5765 98.4883 88.4893 98.4883 88.3149 98.5756C88.3149 98.8372 88.2278 99.0116 87.9662 99.0988C87.5303 99.2733 87.0944 99.3605 86.6585 99.5349C86.7457 99.5349 86.7457 99.6221 86.8329 99.6221C87.1816 99.8838 86.92 100.32 86.5713 100.145ZM87.6175 95.6102C89.4483 95.8719 91.1919 96.0463 93.0227 96.308L91.0176 94.2148C89.3611 94.0404 87.6175 93.9531 85.961 93.7787C86.4841 94.3892 87.0944 94.9997 87.6175 95.6102ZM126.849 122.647C124.67 120.641 122.49 118.635 120.311 116.629C119.613 117.24 118.916 117.763 118.218 118.373C120.223 120.467 122.316 122.473 124.321 124.566C125.106 123.955 125.977 123.257 126.849 122.647ZM124.844 125.176C126.762 127.095 128.593 129.014 130.511 130.932C131.557 130.147 132.516 129.363 133.562 128.578C131.47 126.746 129.377 124.915 127.372 123.083C126.5 123.781 125.716 124.479 124.844 125.176ZM83.7815 81.9174C83.5199 82.1791 83.3456 82.4407 83.084 82.6151L85.6995 85.2316C87.3559 85.6677 88.9252 86.1038 90.4945 86.5398C90.4945 86.5398 90.4945 86.5398 90.5817 86.5398C90.4945 86.4526 90.4945 86.3654 90.4073 86.2782C89.0996 84.8827 87.7047 83.4873 86.3969 82.1791C85.6123 82.0919 84.7405 82.0046 83.7815 81.9174ZM85.7867 81.3941C85.5251 81.1325 85.2636 80.8708 85.002 80.522C84.8277 80.6964 84.6533 80.9581 84.4789 81.1325C84.9149 81.2197 85.3508 81.3069 85.7867 81.3941ZM87.7047 90.9006C87.0072 91.5983 86.2226 92.2088 85.4379 92.9066C87.1816 93.1682 88.838 93.5171 90.5817 93.7787L87.7047 90.9006ZM88.4893 88.1097C89.0124 87.7609 89.5355 87.3248 90.0586 86.9759C88.9252 86.8015 87.7918 86.5398 86.7457 86.3654L88.4893 88.1097ZM80.7301 78.9521C81.0789 79.3882 81.166 79.9115 81.4276 80.3476C81.6019 80.4348 81.6891 80.6092 81.8635 80.6964C82.125 80.4348 82.3866 80.1731 82.5609 79.9115C82.7353 79.737 82.9969 79.5626 83.1712 79.3882C83.5199 79.1265 83.8687 78.7777 84.2174 78.516C82.8225 78.4288 81.4276 78.3416 80.0327 78.1672C80.3814 78.516 80.5558 78.7777 80.7301 78.9521ZM79.5968 86.9759C80.1199 87.4992 80.643 88.1097 81.0789 88.633C82.7353 88.8074 84.3918 89.0691 86.0482 89.3307L82.125 85.2316C81.7763 85.1444 81.4276 85.0572 81.0789 84.97C80.643 85.5805 80.1199 86.2782 79.5968 86.9759ZM89.6227 89.2435L90.4073 90.0285C91.0176 90.1157 91.5407 90.2029 92.1509 90.2901C92.4996 90.3773 92.3253 90.9006 91.9766 90.8134C91.715 90.8134 91.3663 90.7262 91.1047 90.7262L95.1151 94.8253C93.8946 92.4705 92.674 90.2029 91.3663 87.8481C90.756 88.1969 90.1457 88.7202 89.6227 89.2435ZM96.3356 94.2148C96.6844 93.9532 97.1203 93.6915 97.469 93.4299C96.3356 92.2088 95.1151 90.9878 93.9817 89.7668C94.6792 91.2495 95.551 92.7321 96.3356 94.2148ZM96.6844 94.9997C97.2946 96.0463 97.8177 97.0929 98.428 98.2267L100.782 100.582C101.479 100.058 102.09 99.4477 102.787 98.9244C101.218 97.2673 99.5614 95.6102 97.9921 93.9531C97.5562 94.302 97.1203 94.6509 96.6844 94.9997ZM101.567 101.366L106.536 106.425C107.233 105.902 107.931 105.466 108.628 104.942C106.885 103.111 105.141 101.366 103.397 99.5349C102.787 100.233 102.177 100.756 101.567 101.366ZM107.146 107.035L109.936 109.914C110.546 110.524 111.157 111.135 111.767 111.745C112.464 111.222 113.075 110.698 113.772 110.175C113.249 109.652 112.639 109.041 112.116 108.518C111.157 107.472 110.11 106.425 109.151 105.466C108.454 105.989 107.844 106.512 107.146 107.035ZM112.464 112.53C114.121 114.274 115.864 115.931 117.521 117.676C118.218 117.152 119.003 116.629 119.7 116.106C117.869 114.362 116.126 112.617 114.295 110.873C113.685 111.396 113.075 111.919 112.464 112.53ZM116.213 119.943C115.254 120.728 114.208 121.513 113.249 122.298C115.167 124.304 117.085 126.31 119.003 128.403C120.049 127.618 121.182 126.833 122.229 126.048C120.223 123.955 118.218 121.949 116.213 119.943ZM115.428 119.071C113.772 117.414 112.203 115.757 110.546 114.187C109.674 114.972 108.715 115.844 107.756 116.629C109.239 118.199 110.721 119.769 112.29 121.339C113.336 120.554 114.382 119.856 115.428 119.071ZM109.762 113.315C109.239 112.792 108.715 112.268 108.192 111.745L105.141 108.693C104.182 109.477 103.31 110.175 102.351 110.96C102.874 111.571 103.485 112.094 104.008 112.704C104.967 113.664 105.926 114.71 106.885 115.67C107.844 114.885 108.803 114.1 109.762 113.315ZM104.444 107.995L99.7357 103.198C98.8639 103.983 97.9921 104.768 97.2075 105.64C98.6895 107.123 100.084 108.693 101.567 110.175C102.526 109.39 103.485 108.693 104.444 107.995ZM98.7767 102.151L95.6382 99.0116C94.3305 99.5349 93.1099 99.8838 91.8894 100.058C93.2843 101.541 94.6792 102.936 96.0741 104.419C97.0331 103.721 97.9049 102.936 98.7767 102.151ZM83.6943 91.5111C84.3918 90.9878 85.1764 90.4645 85.8739 90.0285C84.4789 89.854 83.084 89.5924 81.6891 89.3307C82.3866 90.0284 83.084 90.7262 83.6943 91.5111ZM78.6378 88.0225C78.1147 88.633 77.5044 89.1563 76.807 89.5924C77.6788 90.4645 78.5506 91.3367 79.3352 92.296C80.2942 92.3833 81.2532 92.4705 82.2122 92.5577C82.3866 92.3833 82.561 92.2961 82.8225 92.1216C81.5148 90.7262 80.1199 89.3307 78.6378 88.0225ZM79.5096 83.1384C79.1609 82.8768 78.8121 82.7024 78.4634 82.4407C78.4634 82.5279 78.3762 82.6151 78.3762 82.7024C78.3762 82.7024 78.2891 82.7024 78.2891 82.7896C78.5506 83.0512 78.8993 83.3129 79.1609 83.5745L79.5096 83.1384ZM80.207 93.081C80.3814 93.2554 80.5558 93.5171 80.7301 93.6915C80.9045 93.5171 81.0789 93.4299 81.2532 93.2554C80.9917 93.1682 80.5558 93.081 80.207 93.081ZM80.643 98.0523C78.8121 97.965 77.0685 97.8778 75.2377 97.7034C76.0223 97.8778 76.7198 97.9651 77.5044 98.1395C78.725 98.3139 79.9455 98.4883 81.166 98.5756L80.643 98.0523ZM77.5916 94.6509C77.5044 94.4764 77.3301 94.3892 77.2429 94.2148C76.1967 94.1276 75.2377 94.1276 74.1915 94.0404C72.6223 93.9531 70.9658 94.2148 69.6581 93.4299C69.4837 93.3426 69.4837 93.1682 69.3965 93.081C69.0478 93.6915 68.6991 94.2148 68.3504 94.8253C68.9606 94.8253 69.6581 94.8253 70.2683 94.8253C72.7094 94.6509 75.1505 94.5637 77.5916 94.6509ZM73.1453 89.2435C71.5761 89.2435 70.0068 89.2435 68.5247 89.0691C68.6991 89.2435 68.7863 89.4179 68.9606 89.5924C70.094 89.4179 71.2273 89.7668 72.2735 90.1157C72.8838 90.2901 73.5812 90.4645 74.1915 90.7262C74.1043 90.639 74.0172 90.5517 73.93 90.4645C73.5812 90.3773 73.3197 90.0285 73.3197 89.6796C73.2325 89.5052 73.1453 89.4179 73.1453 89.2435ZM69.135 91.86C69.3965 91.6855 69.5709 91.5111 69.8324 91.2495C69.7453 91.2495 69.7453 91.2495 69.6581 91.1623C69.4837 91.4239 69.3093 91.5983 69.135 91.86ZM72.7094 91.6855C71.9248 91.5983 71.1402 91.5111 70.2683 91.4239C70.094 91.7728 69.8324 92.2088 69.6581 92.5577C70.9658 92.2088 72.2735 92.5577 73.5812 92.9066C74.5402 93.1682 75.4992 93.3426 76.4582 93.5171C76.0223 92.9938 75.5864 92.5577 75.1505 92.0344C74.3659 91.86 73.5812 91.7728 72.7094 91.6855ZM67.1298 87.4992C68.0016 87.4992 68.8734 87.6736 69.7453 87.8481C71.1402 88.0225 72.5351 88.2841 73.8428 88.5458C73.93 88.4586 74.1043 88.2841 74.1915 88.1969C74.7146 87.7609 75.1505 87.2376 75.6736 86.8015C74.1043 86.8887 72.6223 86.9759 71.053 86.9759C69.8324 86.9759 68.5247 87.0631 67.3042 87.0631C67.1298 87.1503 66.8683 87.1503 66.7811 87.0631C66.8683 87.3248 66.9555 87.412 67.1298 87.4992ZM71.053 86.191C72.7966 86.191 74.4531 86.2782 76.1967 86.3654C76.7198 85.8421 77.3301 85.3188 77.8531 84.7955C75.2377 84.97 72.5351 85.1444 69.8324 85.1444C69.5709 85.4933 69.2222 85.8421 68.8734 86.1038C69.6581 86.1038 70.3555 86.1038 71.053 86.191ZM76.8941 83.6617C76.6326 83.4873 76.4582 83.2257 76.1967 83.0512C75.848 82.8768 75.4992 82.6152 75.1505 82.4407C74.0172 82.4407 72.971 82.4407 71.8376 82.4407C71.6632 82.7024 71.4889 82.964 71.3145 83.1384C73.2325 83.2257 75.1505 83.4873 76.8941 83.6617ZM76.7198 59.8519C76.807 59.9392 76.8941 60.0264 76.8941 60.1136C77.2429 60.288 77.6788 60.5497 78.0275 60.8113C79.8583 58.7181 81.602 56.625 83.4328 54.5318C83.084 54.0085 82.6481 53.5724 82.2994 53.0491C80.4686 55.3167 78.6378 57.5843 76.7198 59.8519ZM82.9097 52.2642C83.3456 52.7003 83.7815 53.1364 84.2174 53.5724C86.0482 51.4793 87.7918 49.3861 89.6227 47.2929C89.1868 46.6824 88.7508 46.1591 88.2278 45.5486C86.4841 47.8162 84.7405 49.9966 82.9097 52.2642ZM97.2946 43.1938L101.828 37.8737C101.305 37.176 100.782 36.5655 100.259 35.8677C98.6895 37.6992 97.0331 39.618 95.4638 41.4495C96.0741 42.06 96.6844 42.6705 97.2946 43.1938ZM94.9407 42.1472C93.4586 43.8915 91.9766 45.5486 90.4945 47.2929C91.1047 47.9034 91.6278 48.6012 92.2381 49.2117L96.5972 44.066C96.0741 43.4555 95.4638 42.7577 94.9407 42.1472ZM102.438 37.2632L104.967 34.2978C105.49 33.6873 106.013 32.9896 106.623 32.3791C106.1 31.7686 105.577 31.1581 104.967 30.5476C104.444 31.1581 104.008 31.6814 103.485 32.2919C102.526 33.3385 101.654 34.3851 100.695 35.4317C101.305 36.0422 101.828 36.6527 102.438 37.2632ZM107.233 31.5942C108.803 29.7627 110.285 28.0183 111.854 26.274C111.331 25.5763 110.721 24.8786 110.198 24.1809C108.628 26.0996 107.146 28.0183 105.49 29.9371C106.1 30.4604 106.623 31.0709 107.233 31.5942ZM112.464 25.4891C114.295 23.3087 116.126 21.2156 117.957 19.0352C117.259 18.2502 116.649 17.3781 115.951 16.5931C114.208 18.948 112.464 21.2156 110.633 23.4832C111.244 24.1809 111.854 24.8786 112.464 25.4891ZM118.48 18.4247C120.223 16.4187 121.88 14.4128 123.623 12.4068C122.839 11.4474 121.967 10.4881 121.182 9.5287C119.613 11.7091 117.957 13.8895 116.387 16.0698C117.085 16.8548 117.782 17.6397 118.48 18.4247ZM114.033 27.3206C114.905 28.28 115.69 29.1521 116.562 30.1115C118.393 28.0183 120.136 26.0124 121.967 23.9192C121.182 22.8726 120.311 21.9133 119.526 20.8667C117.695 23.1343 115.864 25.2275 114.033 27.3206ZM113.336 28.1928C111.854 29.9371 110.459 31.5942 108.977 33.3385C109.849 34.2106 110.633 35.0828 111.505 35.9549C112.9 34.3851 114.295 32.728 115.69 31.1581C114.905 30.1987 114.121 29.2394 113.336 28.1928ZM108.192 34.2106C107.756 34.7339 107.233 35.3444 106.797 35.8677L104.095 39.0947C104.879 39.9668 105.664 40.839 106.449 41.7112C106.972 41.1006 107.495 40.4901 108.018 39.8796C108.89 38.833 109.762 37.8737 110.721 36.8271C109.849 36.0422 108.977 35.17 108.192 34.2106ZM103.397 39.8796L99.1255 44.9381C99.9973 45.7231 100.782 46.508 101.567 47.2929C102.874 45.7231 104.269 44.2404 105.577 42.6705C104.879 41.7112 104.182 40.839 103.397 39.8796ZM98.2536 45.8975L93.8946 51.0432C94.6792 51.8281 95.4638 52.6131 96.2485 53.398C97.7305 51.7409 99.1255 50.0838 100.608 48.4267C99.8229 47.5546 99.0383 46.7696 98.2536 45.8975ZM93.1971 51.9153L88.3149 57.6716C89.0124 58.4565 89.797 59.1542 90.5817 59.9392C92.1509 58.1949 93.7202 56.4505 95.2023 54.7062C94.5048 53.8341 93.8074 52.8747 93.1971 51.9153ZM91.6278 49.9094C91.1047 49.2117 90.5817 48.5139 89.9714 47.8162L84.6533 54.0085C85.2636 54.619 85.8738 55.2295 86.4841 55.9273L91.6278 49.9094ZM88.5765 45.1998C89.0996 45.7231 89.5355 46.2464 90.0586 46.8569C91.5407 45.1126 93.0227 43.4555 94.5048 41.7112C93.9817 41.1006 93.3715 40.4901 92.8484 39.8796C91.4535 41.6239 90.0586 43.3682 88.5765 45.1998ZM93.1971 39.3563C93.8074 39.8796 94.4176 40.4901 95.0279 41.0134C96.6844 39.0947 98.2536 37.2632 99.9101 35.3444C99.2998 34.5595 98.7767 33.8618 98.1665 33.0768C96.51 35.2572 94.8536 37.2632 93.1971 39.3563ZM100.956 29.7627C100.084 30.8092 99.2998 31.8558 98.428 32.9024C99.0383 33.6001 99.6485 34.2979 100.259 34.9956C100.782 34.3851 101.305 33.7746 101.828 33.1641C102.7 32.1175 103.572 31.0709 104.444 30.1115C103.746 29.3266 103.136 28.6289 102.438 27.8439C102.002 28.3672 101.479 29.0649 100.956 29.7627ZM102.874 27.3206C103.572 28.0183 104.269 28.7161 104.967 29.4138C106.536 27.4951 108.105 25.5763 109.674 23.5704C109.064 22.7854 108.367 22.0005 107.756 21.1283C106.187 23.2215 104.531 25.3147 102.874 27.3206ZM108.192 20.7795C108.89 21.5644 109.5 22.2621 110.198 23.0471C112.028 20.7795 113.772 18.4247 115.516 16.1571C114.905 15.3721 114.295 14.6744 113.685 13.8895C111.854 16.1571 110.023 18.5119 108.192 20.7795ZM114.033 13.4534C114.644 14.1511 115.254 14.8488 115.951 15.5466C117.608 13.3662 119.264 11.1858 120.834 9.09262C120.311 8.48211 119.787 7.87161 119.264 7.2611C117.521 9.35427 115.69 11.4474 114.033 13.4534ZM124.321 1.76653C124.059 1.50489 123.885 1.24324 123.623 0.981594C122.49 3.16198 121.008 5.16793 119.352 7.17388C119.875 7.69717 120.485 8.30768 121.008 8.83097C122.403 6.99945 123.798 5.08071 125.193 3.24919C124.844 2.7259 124.582 2.28982 124.321 1.76653ZM127.372 5.34236C126.675 4.73185 126.065 4.12135 125.454 3.51084C124.147 5.42958 122.752 7.34831 121.357 9.26705C122.229 10.1392 123.188 11.0986 124.059 11.9707C124.234 11.7963 124.408 11.6219 124.582 11.4474C126.065 9.79034 127.111 8.13325 128.942 7.17388C128.418 6.47616 127.895 5.86565 127.372 5.34236ZM132.603 19.9945C134.085 18.4247 135.393 16.7676 137.049 15.5466C135.48 14.6744 133.998 13.1917 132.69 11.6219C131.819 12.5812 131.034 13.5406 130.162 14.5C130.947 13.5406 131.819 12.5812 132.603 11.6219C131.644 10.4009 130.685 9.17984 129.813 8.13325C129.116 10.052 127.721 11.273 126.326 12.9301C126.152 13.1917 125.977 13.3662 125.803 13.6278C127.983 15.8954 130.162 18.163 132.342 20.4306C132.429 20.2562 132.516 20.169 132.603 19.9945ZM131.383 21.3028C129.29 19.0352 127.198 16.6804 125.193 14.2383C123.536 16.2443 121.793 18.2502 120.136 20.2562C121.008 21.2156 121.88 22.1749 122.752 23.1343C123.1 22.6982 123.449 22.2621 123.885 21.9133C123.536 22.3493 123.188 22.7854 122.839 23.2215C123.972 24.4425 125.106 25.7507 126.239 26.9718C127.895 25.053 129.639 23.1343 131.383 21.3028ZM125.193 27.9311C124.147 26.6229 123.1 25.3147 122.054 24.0064C120.311 26.0996 118.567 28.1928 116.736 30.2859C117.782 31.4197 118.741 32.5535 119.787 33.7746C121.531 31.8558 123.362 29.8499 125.193 27.9311ZM114.644 39.3563C116.039 37.8737 117.346 36.391 118.741 34.9084C117.782 33.7746 116.823 32.5535 115.864 31.3325C114.469 32.9896 113.162 34.5595 111.767 36.2166C112.726 37.2632 113.685 38.3098 114.644 39.3563ZM112.203 41.9728C112.726 41.3623 113.249 40.839 113.772 40.3157C112.813 39.3563 111.854 38.3098 110.982 37.2632C110.459 37.8737 110.023 38.4842 109.5 39.0075C108.628 40.0541 107.756 41.1006 106.797 42.1472C107.669 43.1066 108.454 44.066 109.326 45.1126C110.285 44.066 111.244 43.0194 112.203 41.9728ZM108.367 46.0719C107.582 45.1126 106.71 44.066 105.926 43.1066C104.618 44.6765 103.31 46.1591 102.002 47.729C102.874 48.6012 103.746 49.3861 104.531 50.2583C105.838 48.8628 107.146 47.4674 108.367 46.0719ZM103.485 51.3921C102.7 50.5199 101.828 49.735 101.043 48.8628C99.6485 50.5199 98.1665 52.177 96.7715 53.9213C97.5562 54.7062 98.2536 55.5784 98.8639 56.5378C100.346 54.7935 101.915 53.1364 103.485 51.3921ZM97.7305 57.6716C96.9459 56.9738 96.2485 56.1889 95.551 55.3167C94.0689 57.0611 92.5868 58.8926 91.1047 60.6369C91.715 61.3346 92.4125 62.0323 92.9356 62.7301C94.592 60.9857 96.1613 59.3287 97.7305 57.6716ZM87.7047 68.5735C88.9252 67.178 90.1457 65.7826 91.4535 64.3871C90.8432 63.7766 90.3201 63.0789 89.797 62.3812C88.5765 63.8639 87.3559 65.3465 86.1354 66.8292C86.6585 67.3525 87.2688 67.963 87.7047 68.5735ZM85.002 66.0442C86.3969 64.5616 87.7047 63.0789 89.0124 61.5963C88.3149 60.7241 87.7047 59.8519 87.0072 59.067L82.5609 64.2999C83.3456 64.8232 84.2174 65.4337 85.002 66.0442ZM85.5251 57.0611C85.002 56.3633 84.3918 55.6656 83.8687 54.9679C82.125 56.9738 80.3814 59.067 78.6378 61.073C79.3352 61.5963 80.0327 62.2068 80.7301 62.7301L85.5251 57.0611ZM78.8121 64.0383C78.9865 64.2127 79.0737 64.4744 79.248 64.6488C79.3352 64.5616 79.3352 64.5616 79.4224 64.4744C79.2481 64.3871 79.0737 64.2127 78.8121 64.0383ZM80.5558 69.0968L80.3814 69.2712C80.207 69.5328 80.1199 69.8817 79.9455 70.1434C79.9455 70.2306 79.9455 70.2306 79.9455 70.3178C79.9455 71.1027 79.3352 71.5388 78.725 71.7132C79.9455 71.8004 81.2532 72.0621 82.4738 72.3237C81.8635 71.2772 81.166 70.1434 80.5558 69.0968ZM82.9097 73.0215C81.602 72.9342 80.2942 72.847 78.9865 72.5854C79.0737 72.6726 79.0737 72.847 79.1609 72.9343C79.2481 73.1959 79.3352 73.4575 79.3352 73.7192C80.9045 73.9808 82.4738 74.5041 84.043 74.853C83.6071 74.2425 83.2584 73.632 82.9097 73.0215ZM84.5661 75.8996C82.8225 75.6379 80.9917 75.4635 79.248 75.1146C79.0737 75.7251 78.8121 76.2484 78.4634 76.7717C78.6378 76.9462 78.725 77.0334 78.8993 77.2078C80.9045 77.4694 82.9097 77.9055 84.8277 78.3416C85.0892 78.1672 85.3508 77.9927 85.6995 77.8183C85.3508 77.1206 85.002 76.5101 84.5661 75.8996ZM86.2226 78.7777C85.8738 79.2138 85.6123 79.6498 85.3508 80.0859C85.8738 80.6092 86.3969 81.1325 86.8329 81.6558C87.1816 81.743 87.6175 81.8302 87.9662 81.8302C87.4431 80.7836 86.8328 79.8243 86.2226 78.7777ZM88.2278 82.2663C87.9662 82.2663 87.7047 82.2663 87.4431 82.1791C88.0534 82.7896 88.6637 83.4873 89.2739 84.0978C88.9252 83.4873 88.5765 82.8768 88.2278 82.2663ZM89.3611 81.743C89.4483 81.9174 89.5355 82.0046 89.6227 82.1791C89.7098 82.1791 89.797 82.1791 89.8842 82.2663C89.7098 82.0046 89.5355 81.8302 89.3611 81.743ZM90.1457 82.4407H89.797C90.4073 83.5745 91.1047 84.7083 91.715 85.8421C92.0637 85.5805 92.4125 85.3188 92.8484 85.0572C91.8894 84.185 91.0176 83.3129 90.1457 82.4407ZM93.5458 85.7549C93.1099 86.1038 92.674 86.4526 92.3253 86.8887C92.3253 86.9759 92.4125 87.0631 92.4996 87.1503H92.674C92.7612 87.1503 92.7612 87.3248 92.674 87.3248C92.7612 87.412 92.7612 87.4992 92.8484 87.6736C94.592 89.5052 96.3356 91.2495 98.0793 93.081C98.6895 92.6449 99.2998 92.2088 99.9101 91.7728C97.7305 89.7668 95.6382 87.7609 93.5458 85.7549ZM100.172 92.1216C99.5614 92.5577 99.0383 93.081 98.428 93.5171C99.9973 95.1742 101.654 96.8312 103.223 98.4883C103.833 97.965 104.531 97.4418 105.141 96.9185C103.572 95.3486 101.828 93.7787 100.172 92.1216ZM105.664 97.3545C105.054 97.9651 104.444 98.4883 103.833 99.0988C105.577 100.93 107.408 102.762 109.151 104.593C109.936 104.07 110.721 103.46 111.505 102.936C109.587 101.105 107.669 99.2733 105.664 97.3545ZM114.818 106.076C113.859 105.117 112.813 104.157 111.854 103.285C111.069 103.896 110.372 104.506 109.674 105.117C110.285 105.727 110.808 106.338 111.418 106.948C112.377 107.908 113.336 108.954 114.295 109.914C115.08 109.303 115.951 108.693 116.736 107.995C116.039 107.297 115.428 106.687 114.818 106.076ZM117.085 108.256C116.3 108.954 115.603 109.652 114.818 110.35C116.649 112.181 118.48 113.925 120.311 115.67C121.182 115.059 121.967 114.449 122.839 113.838L117.085 108.256ZM123.275 114.274C122.49 114.885 121.705 115.583 120.921 116.193C123.1 118.199 125.28 120.292 127.459 122.211C128.244 121.6 129.029 121.077 129.813 120.467C127.634 118.461 125.454 116.367 123.275 114.274ZM130.162 120.903C129.377 121.513 128.68 122.124 127.895 122.734C129.901 124.566 131.993 126.484 134.085 128.316C134.696 127.793 135.393 127.357 136.003 126.833C133.998 124.827 132.08 122.734 130.162 120.903ZM142.106 132.066C142.193 132.066 142.28 131.979 142.368 131.979C142.28 131.892 142.193 131.892 142.106 131.805C142.106 131.892 142.106 131.979 142.106 132.066ZM141.147 132.415C141.409 132.241 141.757 131.979 142.019 131.805C139.926 130.409 138.008 128.752 136.178 126.921C135.567 127.444 134.957 127.967 134.347 128.578C136.09 130.148 137.921 131.805 139.665 133.374C140.101 132.938 140.624 132.59 141.147 132.415ZM135.567 136.863C136.178 136.34 136.788 135.904 137.398 135.38C138.008 134.77 138.706 134.072 139.403 133.549C137.573 131.979 135.742 130.496 133.998 128.926C133.039 129.799 132.08 130.671 131.121 131.543C131.295 131.717 131.47 131.892 131.644 132.066C133.126 133.636 134.696 134.857 135.567 136.863ZM122.316 139.741C123.798 141.398 125.367 142.881 126.5 144.712C127.459 143.143 129.029 141.747 130.772 140.439C129.901 139.48 129.029 138.607 128.07 137.648C128.942 138.607 129.901 139.48 130.772 140.439C132.08 139.48 133.388 138.607 134.434 137.735C132.603 136.863 131.383 135.293 129.813 133.723C129.639 133.549 129.377 133.287 129.203 133.113C126.849 135.293 124.408 137.386 121.967 139.392C122.141 139.48 122.229 139.654 122.316 139.741ZM121.095 138.433C123.536 136.427 126.065 134.421 128.593 132.415C126.675 130.496 124.844 128.578 122.926 126.746C121.88 127.618 120.834 128.403 119.875 129.275C118.567 130.322 117.172 131.456 115.864 132.502C117.608 134.421 119.352 136.427 121.095 138.433ZM114.905 131.456C116.3 130.409 117.608 129.45 119.003 128.403C116.998 126.397 115.08 124.391 113.075 122.473C111.854 123.432 110.633 124.391 109.413 125.351C111.244 127.357 113.075 129.45 114.905 131.456ZM108.367 124.217C109.587 123.345 110.808 122.385 112.116 121.513C110.546 119.943 109.064 118.461 107.495 116.891C106.449 117.85 105.315 118.722 104.182 119.682C105.664 121.164 106.972 122.647 108.367 124.217ZM101.741 116.891C102.264 117.501 102.787 118.025 103.31 118.635C104.356 117.676 105.403 116.804 106.536 115.931C106.013 115.408 105.403 114.798 104.879 114.274C103.92 113.315 102.874 112.268 101.915 111.222C100.869 112.007 99.8229 112.879 98.7767 113.664C99.8229 114.71 100.782 115.844 101.741 116.891ZM97.9049 112.704C98.9511 111.919 99.9973 111.135 101.043 110.35C99.5614 108.867 98.1665 107.384 96.6844 105.902C95.8126 106.774 94.8536 107.559 93.9817 108.344C95.2895 109.826 96.5972 111.222 97.9049 112.704ZM92.9356 107.21C93.8074 106.425 94.7664 105.64 95.6382 104.855C94.1561 103.285 92.5868 101.715 91.1047 100.233C91.0176 100.233 90.8432 100.233 90.756 100.233C89.9714 100.93 89.0996 101.541 88.2278 101.977C89.7098 103.721 91.3663 105.466 92.9356 107.21ZM92.0637 155.789C91.3663 155.702 90.756 155.614 90.0586 155.527C90.8432 156.399 91.4535 157.097 92.0637 156.312C92.0637 156.05 92.0637 155.876 92.0637 155.789ZM91.1919 158.144C91.1919 158.144 91.4535 158.231 91.715 158.231C91.2791 157.708 89.6227 155.266 89.0996 155.876C88.2278 157.01 88.5765 156.748 87.1816 157.271H87.0944C88.4893 157.533 89.8842 157.882 91.1919 158.144ZM86.3969 157.184C85.2636 156.487 84.7405 154.219 83.9559 156.835C84.7405 156.923 85.5251 157.097 86.3969 157.184ZM83.5199 155.091C83.5199 155.004 83.6943 154.917 83.7815 154.742C83.1712 154.655 82.6481 154.655 82.0379 154.568C82.561 155.44 83.1712 156.225 83.5199 155.091ZM82.7353 156.661C81.602 155.178 81.2532 154.568 80.1199 156.399C80.9045 156.487 81.7763 156.574 82.7353 156.661ZM80.0327 154.393C78.8993 154.306 77.766 154.219 76.6326 154.132C77.766 155.091 78.8121 155.614 80.0327 154.393ZM77.5916 156.225C76.2839 155.004 75.2377 154.045 74.6274 156.05C75.6736 156.05 76.6326 156.138 77.5916 156.225ZM74.9762 152.823C75.1505 152.911 75.3249 153.085 75.4121 153.172C77.1557 153.347 78.8993 153.521 80.643 153.696C80.643 153.696 80.643 153.696 80.7301 153.608C80.9045 153.434 81.166 153.26 81.4276 153.521C81.5148 153.608 81.5148 153.696 81.602 153.783C82.7353 153.957 83.8687 154.045 84.9149 154.219C85.2636 154.132 85.5251 154.045 85.3508 154.132C85.5251 154.045 85.7867 154.219 85.8739 154.393C86.2226 154.481 86.5713 154.481 86.92 154.568L88.838 154.655C88.838 154.481 89.0996 154.393 89.2739 154.568C89.4483 154.742 89.5355 154.917 89.7098 155.091C90.4945 155.266 91.2791 155.353 92.0637 155.527C92.0637 155.266 91.9766 155.004 91.9766 154.655C89.797 154.481 87.7047 154.219 85.6123 153.783C85.3508 153.696 85.4379 153.347 85.6995 153.347C87.7918 153.521 89.9714 153.783 91.9766 154.219C91.8894 153.172 91.8022 152.126 91.6278 151.079C89.3611 150.73 87.1816 150.294 85.002 149.684C84.8277 149.597 84.9149 149.335 85.0892 149.335C87.2688 149.684 89.4483 150.207 91.6278 150.73C91.5407 149.597 91.4535 148.376 91.2791 147.242C88.4021 147.154 85.5251 146.806 82.6481 146.195C82.3866 146.108 82.4738 145.759 82.7353 145.759C85.6123 145.846 88.4893 146.282 91.2791 146.893C91.1919 145.585 91.0176 144.189 90.9304 142.881C88.7508 142.707 86.5713 142.445 84.4789 141.922C84.3046 141.922 84.3046 141.573 84.5661 141.573C86.7457 141.747 88.838 142.096 90.9304 142.619C90.8432 141.573 90.6688 140.439 90.5817 139.392C90.5817 139.043 90.4945 138.695 90.4945 138.346C88.4893 138.346 86.4841 138.084 84.5661 137.822C84.3918 137.822 84.3918 137.474 84.6533 137.474C86.6585 137.561 88.5765 137.735 90.4945 138.084C90.2329 135.729 89.8842 133.374 89.6227 131.107C87.5303 131.02 85.4379 130.932 83.4328 130.584C83.1712 130.584 83.2584 130.148 83.5199 130.148C85.5251 130.148 87.6175 130.322 89.6227 130.496C89.4483 129.45 89.3611 128.403 89.1867 127.269C86.92 127.008 84.5661 126.746 82.2994 126.223C82.2122 126.223 82.2122 125.961 82.2994 125.961C84.5661 126.223 86.8328 126.572 89.0996 127.008C88.9252 125.7 88.7508 124.479 88.5765 123.17C86.6585 123.083 84.7405 122.996 82.8225 122.647C82.561 122.56 82.6481 122.211 82.9097 122.211C84.8277 122.124 86.6585 122.385 88.5765 122.647C88.4021 121.077 88.1406 119.507 87.9662 117.937C85.6995 117.937 83.4328 118.112 81.166 118.025C80.9917 118.025 80.9917 117.763 81.166 117.676C83.4328 117.588 85.6995 117.763 87.9662 117.763C87.879 116.804 87.7047 115.757 87.6175 114.798C85.4379 114.449 83.2584 114.187 81.166 113.664C81.0789 113.664 81.0789 113.402 81.166 113.402C83.3456 113.664 85.4379 114.1 87.5303 114.536C87.3559 113.053 87.1816 111.571 87.0944 110.088C84.9148 109.652 82.7353 109.129 80.5558 108.431C80.3814 108.344 80.4686 108.082 80.643 108.169C82.8225 108.605 84.9148 109.216 87.0944 109.826C87.0072 108.78 86.92 107.733 86.8329 106.687C85.3508 106.425 83.8687 106.076 82.2994 105.64C82.125 105.553 82.2122 105.378 82.3866 105.378C83.8687 105.553 85.3508 105.902 86.7457 106.25C86.6585 105.553 86.6585 104.768 86.5713 104.07C86.3969 103.896 86.3098 103.721 86.1354 103.634C85.6995 103.198 85.2636 102.675 84.9149 102.239C84.8277 102.239 84.8277 102.239 84.7405 102.239C84.1302 102.326 83.5199 102.239 82.8225 102.239C82.6481 102.239 82.6481 101.977 82.8225 101.977C83.3456 101.977 83.8687 101.977 84.3918 101.977C84.4789 101.977 84.4789 101.977 84.5661 101.977C84.043 101.366 83.4328 100.756 82.8225 100.145C80.2071 100.058 77.5916 99.7966 75.0633 99.7093C72.012 99.6221 68.4375 99.7966 65.6477 98.4883C65.0375 99.2733 64.34 100.145 63.7297 100.93C65.3862 100.756 67.1298 100.582 68.7863 100.407C68.9606 100.407 68.9606 100.669 68.7863 100.669C66.9554 100.93 65.0375 101.279 63.2066 101.541C62.6836 102.239 62.0733 102.936 61.5502 103.634C63.381 103.372 65.2118 103.285 67.0426 103.285C67.3042 103.285 67.3914 103.721 67.1298 103.721C65.1246 104.07 63.1195 104.245 61.1143 104.245C60.8527 104.593 60.5912 104.942 60.2425 105.291C60.1553 105.378 60.0681 105.466 59.9809 105.553C62.0733 106.076 64.4272 105.902 66.3452 104.942C66.4324 104.942 66.4324 104.942 66.4324 105.029C64.2528 106.599 61.8989 107.035 59.545 106.163C59.2835 106.512 59.0219 106.861 58.7604 107.21C61.5502 107.123 64.5144 107.472 67.1298 107.733C64.1656 108.082 60.9399 108.518 57.8886 108.344C57.4527 108.867 57.0167 109.39 56.5808 109.914H56.668C56.7552 109.914 56.8424 110.001 56.9296 110.088C59.8937 109.477 63.0323 109.739 65.9965 109.739C66.0836 109.739 66.0836 109.826 65.9965 109.826C62.9451 110.175 59.8066 110.873 56.668 110.611C56.5808 110.611 56.4937 110.524 56.4937 110.524C56.3193 110.524 56.1449 110.611 56.0578 110.611C55.709 111.047 55.3603 111.483 55.0116 111.919C58.7604 111.309 62.8579 111.919 66.6067 112.181C66.6939 112.181 66.6939 112.268 66.6067 112.268C62.8579 112.443 58.6732 113.141 54.9244 112.443C54.8372 112.443 54.75 112.356 54.75 112.268C54.3141 112.792 53.9654 113.228 53.5295 113.751C54.4013 113.751 55.2731 113.751 56.1449 113.838C56.2321 113.838 56.2321 113.925 56.1449 113.925C56.0577 113.925 55.8834 114.013 55.7962 114.013C59.8066 113.838 63.9041 114.1 67.7401 114.187C67.8273 114.187 67.7401 114.274 67.7401 114.274C62.7707 114.71 57.4527 115.321 52.3961 115.059C52.0474 115.495 51.6115 116.019 51.2628 116.455C56.7552 115.844 62.8579 116.804 68.3504 116.716C68.4375 116.716 68.4375 116.891 68.3504 116.891C63.2066 117.065 57.627 118.112 52.3089 118.025C51.3499 118.286 50.3909 118.548 49.4319 118.722C49.4319 118.722 49.432 118.722 49.3448 118.81C55.1859 118.373 61.463 119.246 67.1298 119.158C67.217 119.158 67.217 119.333 67.1298 119.333C61.1143 119.507 54.3141 120.728 48.2114 120.205C48.1242 120.292 48.1242 120.292 48.0371 120.379C48.0371 120.467 48.0371 120.554 47.9499 120.641C48.3858 120.728 48.8217 121.077 48.9089 121.513C48.9089 121.6 48.9089 121.775 48.9089 121.862C50.4781 121.775 52.0474 121.775 53.5295 121.688C56.668 121.6 59.8066 121.339 62.9451 120.99C59.8066 121.426 56.7552 122.124 53.7039 122.647C52.1346 122.909 50.5653 123.345 48.996 123.606C48.996 123.955 48.996 124.304 48.996 124.653C55.3603 124.13 61.9861 125.002 68.2632 124.915C68.3504 124.915 68.3504 125.002 68.2632 125.002C61.9861 125.089 55.2731 126.136 48.9089 125.787C48.9089 125.961 48.9089 126.136 48.9089 126.223C49.1704 126.397 49.1704 126.833 48.9089 127.008C54.4885 126.659 60.504 127.182 65.9965 127.095C60.4168 127.444 54.4885 128.49 48.7345 128.49C48.7345 128.578 48.7345 128.752 48.7345 128.839C48.7345 129.275 48.473 129.537 48.2114 129.711C54.6628 129.275 61.3758 129.973 67.8273 129.973C68.0016 129.973 68.0016 130.148 67.8273 130.148C61.2886 130.322 54.4885 131.107 47.9499 130.758C47.9499 130.932 47.9499 131.02 47.9499 131.194C48.0371 131.194 48.1242 131.194 48.2114 131.281C48.5601 131.369 48.7345 131.805 48.7345 132.066C50.8269 131.979 53.0064 132.153 55.1859 132.153C59.6322 132.153 64.0785 132.066 68.4375 131.892C68.5247 131.892 68.5247 131.979 68.4375 131.979C64.6015 132.066 60.6784 132.415 56.8424 132.677C53.8782 132.851 50.914 133.374 47.9499 133.374C47.9499 133.898 47.9499 134.334 47.8627 134.857C54.8372 134.421 62.2476 135.38 69.0478 135.468V135.555C62.1605 135.729 54.75 136.689 47.7755 136.165C47.7755 136.689 47.6883 137.212 47.6883 137.822C54.4885 137.299 61.7246 138.433 68.5247 138.346C68.6119 138.346 68.6119 138.433 68.5247 138.433C61.7246 138.52 54.4013 139.741 47.6011 139.305C47.6011 139.567 47.6011 139.741 47.514 140.003C47.6883 140.177 47.6883 140.352 47.6883 140.526C50.1294 140.439 52.7449 140.788 55.1859 140.875C59.8066 141.137 64.5144 141.137 69.135 141.224C69.2222 141.224 69.2222 141.398 69.135 141.398C65.0375 141.485 61.0271 141.398 56.9296 141.573C53.791 141.66 50.4781 142.183 47.3396 141.922C47.2524 142.358 47.2524 142.794 47.1652 143.317C47.514 143.404 47.6883 143.84 47.6011 144.102C54.3141 143.666 61.2886 144.276 67.9144 144.276C68.0016 144.276 68.0016 144.364 67.9144 144.364C61.0271 144.625 53.8782 145.585 46.9909 145.323C46.9909 145.497 46.9909 145.585 46.9909 145.759C47.078 145.933 47.0781 146.108 46.9037 146.282C46.9037 146.457 46.9037 146.631 46.8165 146.806C53.3551 145.759 60.6784 146.718 67.3042 146.806C67.3914 146.806 67.3914 146.893 67.3042 146.893C60.6784 147.242 53.5295 148.637 46.9909 147.852C46.9037 147.852 46.8165 147.765 46.7293 147.765C46.7293 148.201 46.6421 148.55 46.6421 148.986C46.6421 149.335 46.555 149.684 46.555 150.033C49.3448 149.858 52.1346 150.12 54.8372 150.12C59.1963 150.033 63.5554 149.945 67.8273 149.858C67.9144 149.858 67.9144 149.945 67.8273 149.945C63.9913 150.207 60.2425 150.469 56.4065 150.73C53.1808 150.992 49.6935 151.602 46.3806 151.69C46.3806 152.039 46.2934 152.475 46.2934 152.823C50.0422 152.649 53.791 152.649 57.1039 152.562C62.9451 152.387 68.7863 152.562 74.5403 152.998C74.3659 152.823 74.7146 152.649 74.9762 152.823ZM73.93 153.957C73.1453 153.87 72.3607 153.87 71.5761 153.87C72.6223 154.742 73.4069 155.353 73.93 153.957ZM72.6222 155.876C71.6633 154.917 70.9658 154.219 69.9196 155.702C69.9196 155.702 69.9196 155.702 69.8324 155.789C70.7914 155.789 71.6633 155.789 72.6222 155.876ZM65.2118 155.702C64.2528 154.655 63.7297 153.521 62.422 155.702C63.381 155.702 64.34 155.702 65.2118 155.702ZM54.6628 155.178C55.4475 154.306 56.668 153.87 57.7142 153.696C58.4988 153.608 59.7194 154.045 60.4168 154.655H60.504C60.5912 154.655 60.5912 154.742 60.504 154.742C60.5912 154.829 60.7656 155.004 60.8527 155.091C61.0271 155.353 61.2015 155.527 61.2886 155.702C61.463 155.702 61.5502 155.702 61.7246 155.702C61.8117 155.527 62.0733 155.091 62.422 154.655C62.6836 154.306 63.1195 153.957 63.5554 153.608C62.422 153.608 61.3758 153.608 60.2425 153.608C57.8014 153.608 55.3603 153.696 52.9192 153.783C53.1808 154.045 53.6167 154.655 53.9654 155.178C54.1398 155.178 54.4013 155.178 54.6628 155.178ZM53.0936 156.05C53.0064 155.963 53.0064 155.963 52.9192 155.876C52.3961 155.963 51.873 156.05 51.3499 156.138C51.873 156.138 52.4833 156.138 53.0936 156.05ZM52.3089 155.266C51.6115 154.742 51.0884 154.829 50.5653 155.353C51.0884 155.353 51.6987 155.353 52.3089 155.266ZM46.1191 154.306C46.9037 154.742 47.4268 155.266 47.7755 155.614C48.2114 155.614 48.6473 155.527 48.996 155.527C49.1704 155.178 49.3448 154.742 49.6063 154.044C48.3858 154.132 47.1652 154.219 45.9447 154.306C46.0319 154.219 46.1191 154.306 46.1191 154.306ZM45.8575 118.025C45.8575 117.501 45.9447 116.978 45.9447 116.455C45.6831 116.193 45.5088 115.931 45.2472 115.757C44.9857 115.844 44.7241 115.844 44.4626 115.931C44.1139 116.367 43.678 116.804 43.3292 117.24C42.8062 117.937 42.1959 118.548 41.6728 119.246C42.4574 118.984 43.2421 118.81 44.1139 118.635C44.1139 118.548 44.2011 118.548 44.2882 118.548C44.8113 118.286 45.3344 118.112 45.8575 118.025ZM44.637 126.833C44.8113 126.048 45.0729 125.263 45.3344 124.566C44.8985 124.653 44.4626 124.74 44.0267 124.827C42.9805 126.048 41.9343 127.269 40.9753 128.578C41.4112 128.403 41.8472 128.229 42.2831 128.142C42.1959 127.967 42.1959 127.618 42.5446 127.531C43.1549 127.269 43.9395 127.095 44.637 126.833ZM46.7293 175.499C45.9447 175.587 45.1601 175.587 44.3754 175.674C44.3754 175.761 44.3754 175.936 44.3754 176.023C45.1601 175.761 45.9447 175.587 46.7293 175.499ZM44.2882 128.49C44.2011 128.49 44.1139 128.403 44.0267 128.316C42.8062 128.49 41.5856 128.752 40.4522 129.275C40.0163 129.799 39.4933 130.409 39.0573 130.932C40.5394 130.496 42.0215 129.973 43.5908 129.537C43.7652 129.537 43.9395 129.45 44.1139 129.363C44.1139 129.101 44.2011 128.752 44.2882 128.49ZM43.5908 131.892C43.5908 131.805 43.5908 131.717 43.5908 131.63C41.8472 131.63 40.1907 131.543 38.4471 131.543C37.7496 132.328 37.1393 133.113 36.4419 133.985C38.1855 133.374 40.0163 132.851 41.8472 132.415C42.3703 132.241 42.9805 132.066 43.5908 131.892ZM43.2421 134.421C43.2421 134.334 43.2421 134.247 43.2421 134.159C42.9805 134.159 42.6318 134.247 42.3702 134.247C40.1907 134.595 38.0112 134.857 35.7445 134.857C35.6573 134.944 35.6573 134.944 35.5701 135.032C35.5701 135.555 35.4829 136.078 35.4829 136.601C37.3137 136.165 39.1445 135.555 40.9753 135.032C41.6728 134.77 42.4574 134.595 43.2421 134.421ZM42.8933 136.863C42.6318 136.863 42.3702 136.863 42.1087 136.95C39.842 137.125 37.6624 137.038 35.3957 137.212C35.3085 138.171 35.2214 139.218 35.1342 140.177C36.965 139.218 38.9702 138.782 40.8882 138.259C41.4984 138.084 42.1087 137.91 42.719 137.735C42.8933 137.386 42.8933 137.125 42.8933 136.863ZM42.6318 139.828C42.4574 139.828 42.2831 139.828 42.1087 139.916C39.842 140.177 37.4881 140.526 35.1342 140.264C35.047 141.049 34.9598 141.747 34.8726 142.532C36.7906 141.922 38.7086 141.224 40.7138 140.788C41.3241 140.613 41.9343 140.526 42.5446 140.352C42.6318 140.177 42.6318 140.003 42.6318 139.828ZM42.3702 142.532C42.0215 142.619 41.5856 142.619 41.2369 142.706C39.0573 143.055 36.8778 143.143 34.7854 143.317C34.6983 143.928 34.6111 144.538 34.5239 145.149C36.5291 144.538 38.6214 144.189 40.7138 143.928C41.2369 143.84 41.76 143.753 42.2831 143.666C42.3703 143.23 42.3702 142.881 42.3702 142.532ZM42.1087 145.497C42.0215 145.497 41.9343 145.497 41.8472 145.497C39.3189 145.672 36.8778 145.846 34.3495 145.672C34.2624 146.108 34.2624 146.544 34.1752 147.067L34.2624 146.98C36.3547 146.631 38.3599 146.37 40.3651 145.933C41.0625 145.759 41.5856 145.672 42.1087 145.497ZM41.9343 147.939C41.9343 147.765 42.0215 147.503 42.0215 147.329C41.9343 147.329 41.76 147.329 41.6728 147.329C39.3189 147.329 36.8778 147.329 34.5239 147.416C34.4367 147.416 34.3495 147.329 34.2624 147.242C34.1752 147.852 34.088 148.55 34.0008 149.16C35.9188 148.637 37.924 148.463 39.9292 148.288C40.5394 148.201 41.2369 148.027 41.9343 147.939ZM41.2369 149.858C40.801 149.858 40.2779 149.771 39.842 149.771C37.8368 149.771 35.8316 149.771 33.9136 149.422C33.8264 150.207 33.6521 151.079 33.5649 151.864C35.5701 151.341 37.4881 150.818 39.4932 150.294C40.1035 150.207 40.6266 150.033 41.2369 149.858ZM33.4777 152.387C33.4777 152.649 33.3905 152.823 33.3905 153.085C35.3085 152.649 37.2265 152.387 39.1445 151.951C37.2265 152.126 35.3957 152.3 33.4777 152.387ZM40.9753 155.876C40.1907 156.05 39.4932 156.138 38.7086 156.312C38.7958 156.574 38.883 156.923 38.883 157.184C39.0573 157.097 39.1445 157.097 39.3189 157.01C39.842 156.835 40.3651 156.574 40.8882 156.399C40.8882 156.225 40.8882 156.05 40.9753 155.876ZM36.7034 155.527C37.924 155.178 39.0573 154.917 40.2779 154.742C39.0573 154.917 37.7496 155.091 36.5291 155.266C36.5291 155.353 36.6163 155.44 36.7034 155.527ZM36.4419 156.574C36.3547 156.574 36.2675 156.574 36.1804 156.574C36.0932 157.097 36.006 157.708 35.8316 158.231C36.2675 158.056 36.7034 157.882 37.1393 157.708C36.8778 157.446 36.6163 157.01 36.4419 156.574ZM37.4009 156.487C37.5753 156.748 37.8368 157.01 38.0112 157.271C38.0984 156.923 38.0983 156.661 38.1855 156.312C38.0112 156.399 37.7496 156.399 37.4009 156.487ZM31.1238 178.639C32.0828 178.726 32.6931 179.25 32.8675 180.035C33.9136 179.686 34.9598 179.424 36.006 178.988C36.7906 178.726 37.5753 178.29 38.4471 178.029C38.1855 178.029 37.924 178.029 37.5753 178.029C35.3957 178.029 33.3034 178.116 31.1238 177.942C31.1238 178.203 31.1238 178.465 31.1238 178.639ZM31.2982 177.069C32.7803 176.808 34.1752 176.72 35.6573 176.546C36.6163 176.459 37.6624 176.284 38.7086 176.11C38.7086 175.848 38.7958 175.587 38.7958 175.325C38.3599 175.325 37.8368 175.325 37.4009 175.325C35.3957 175.412 33.3905 175.761 31.4725 176.023C31.3854 176.372 31.2982 176.72 31.2982 177.069ZM36.7906 174.366C35.8316 174.366 34.8726 174.278 33.9136 174.278C33.3905 174.627 32.7803 174.976 32.2572 175.412C33.6521 175.151 35.047 174.802 36.3547 174.54C36.5291 174.453 36.6163 174.366 36.7906 174.366ZM31.4725 175.499C31.5597 175.499 31.7341 175.412 31.8213 175.412C31.7341 175.325 31.7341 175.238 31.8213 175.151C32.17 174.802 32.5187 174.453 32.8675 174.191C32.4315 174.191 31.9956 174.104 31.5597 174.104C31.5597 174.54 31.4725 175.063 31.4725 175.499ZM31.5597 173.755C33.3034 173.319 34.9598 172.796 36.7034 172.447C37.4881 172.273 38.2727 172.011 39.0573 171.924C39.0573 171.836 39.0573 171.836 39.0573 171.749C38.6214 171.749 38.2727 171.749 37.8368 171.749C35.7444 171.924 33.7393 172.273 31.6469 172.098C31.6469 172.621 31.6469 173.145 31.5597 173.755ZM31.8213 171.4C33.129 170.877 34.4367 170.528 35.8316 170.179C34.6111 170.092 33.3034 169.918 32.0828 169.656C31.9956 169.656 31.9956 169.569 31.9956 169.569C31.9085 170.179 31.8213 170.79 31.8213 171.4ZM31.9085 169.394L31.9956 169.307C33.9136 168.784 35.7444 168.348 37.6624 168.261C38.2727 168.173 38.7958 168.173 39.4061 168.086C39.4061 167.737 39.4932 167.388 39.4932 167.04C39.1445 167.04 38.7086 167.04 38.3599 167.04C36.2675 167.127 34.088 167.214 31.9956 167.214C32.0828 167.912 31.9956 168.697 31.9085 169.394ZM32.0828 166.865C33.8265 166.429 35.6573 166.08 37.4881 165.644C38.1855 165.47 38.9702 165.295 39.7548 165.121C39.3189 165.034 38.9702 165.034 38.5343 165.034C36.4419 164.859 34.3495 164.859 32.2572 164.598C32.2572 165.295 32.17 166.08 32.0828 166.865ZM32.3444 163.987C34.1752 163.638 36.0932 163.377 37.924 163.115C36.1804 163.028 34.4367 162.853 32.6931 162.853C32.5187 162.853 32.4315 162.504 32.6059 162.504C34.9598 162.068 37.2265 161.545 39.5804 161.022C39.842 160.935 40.1035 160.935 40.3651 160.847C40.3651 160.76 40.3651 160.586 40.4522 160.498C37.8368 160.935 35.2214 161.371 32.6059 161.894C32.4315 162.592 32.3444 163.289 32.3444 163.987ZM32.6931 159.103C33.2162 159.016 33.7393 158.841 34.1752 158.754C34.0008 158.318 33.9136 157.882 33.8265 157.446C33.8265 157.271 34.0008 157.097 34.1752 157.271C34.4367 157.533 34.6111 157.708 34.7854 157.969C34.8726 157.533 35.047 157.184 35.1342 156.748C34.3495 156.835 33.5649 156.923 32.7803 157.01C32.8675 157.62 32.7803 158.318 32.6931 159.103ZM32.9546 156.574C33.8264 156.312 34.6983 156.138 35.4829 155.876C35.4829 155.702 35.5701 155.614 35.5701 155.44C34.6983 155.614 33.8264 155.876 32.9546 156.05C33.0418 156.225 32.9546 156.399 32.9546 156.574ZM33.2162 154.829C35.5701 154.132 38.0983 153.608 40.7138 153.347C40.2779 153.347 39.9292 153.26 39.4932 153.26C37.4881 153.26 35.3957 153.347 33.3905 153.347C33.3034 153.87 33.2162 154.306 33.2162 154.829ZM34.088 133.113C34.1752 131.543 34.2624 129.886 34.3495 128.229C32.8674 130.148 31.3854 132.066 29.9033 133.985C30.5136 134.683 31.0366 135.293 31.6469 135.991C32.5187 135.032 33.3034 134.072 34.088 133.113ZM31.3854 136.427C30.7751 135.816 30.1648 135.206 29.5545 134.508C27.9853 136.601 26.3288 138.782 24.7596 140.962C25.2827 141.573 25.8057 142.096 26.3288 142.619C27.9853 140.613 29.7289 138.52 31.3854 136.427ZM21.4467 148.201C21.5338 148.288 21.621 148.375 21.7082 148.375C23.1903 146.544 24.7596 144.625 26.2417 142.794C25.7186 142.27 25.1083 141.747 24.5852 141.224C23.1903 143.055 21.7954 144.887 20.4005 146.806C20.8364 147.242 21.1851 147.678 21.4467 148.201ZM18.2209 144.8C18.9184 145.323 19.5287 145.933 20.1389 146.544C21.4467 144.625 22.7544 142.794 24.1493 140.875C23.2775 140.003 22.3185 139.131 21.4467 138.346C21.2723 138.52 21.0979 138.695 21.0108 138.869C19.6159 140.526 18.5697 142.096 16.7389 143.143C17.1748 143.666 17.6979 144.189 18.2209 144.8ZM12.7285 130.584C11.2464 132.153 9.9387 133.811 8.36943 135.032C9.9387 135.817 11.4208 137.299 12.8157 138.782C13.6003 137.822 14.4721 136.863 15.2568 135.991C14.4721 136.95 13.6875 137.91 12.8157 138.869C13.8619 140.003 14.8209 141.224 15.6927 142.183C16.3901 140.352 17.785 139.043 19.0928 137.386C19.2671 137.212 19.4415 136.95 19.6159 136.776C17.3491 134.683 15.1696 132.502 12.9901 130.235C12.9901 130.322 12.9029 130.496 12.7285 130.584ZM13.9491 129.275C16.1286 131.456 18.221 133.723 20.3133 135.991C21.9698 133.985 23.6262 131.979 25.2827 130.06C24.4108 129.101 23.539 128.229 22.58 127.269C22.2313 127.705 21.8826 128.142 21.5339 128.49C21.8826 128.054 22.2313 127.618 22.58 127.182C21.4467 125.961 20.3133 124.827 19.0928 123.606C17.4363 125.612 15.6927 127.444 13.9491 129.275ZM20.1389 122.734C21.1851 123.955 22.3185 125.263 23.3647 126.484C25.1083 124.391 26.8519 122.298 28.5956 120.205C27.5494 119.071 26.5032 118.025 25.5442 116.891C23.7134 118.81 21.8826 120.728 20.1389 122.734ZM26.5032 115.757C27.4622 116.891 28.4212 118.025 29.4674 119.158C30.7751 117.588 32.17 115.931 33.4777 114.362C32.5187 113.402 31.5597 112.443 30.6007 111.396C29.2058 112.879 27.8109 114.274 26.5032 115.757ZM32.9546 108.78C32.4315 109.303 31.9085 109.914 31.3854 110.437C32.3444 111.396 33.3034 112.356 34.2624 113.315C34.7855 112.704 35.2214 112.181 35.7445 111.571C36.0932 111.135 36.4419 110.786 36.7034 110.35C36.7906 109.739 36.965 109.129 37.1393 108.518C37.0522 108.518 36.8778 108.605 36.7906 108.605C36.6163 108.693 36.5291 108.344 36.7034 108.256C36.8778 108.169 37.0522 108.082 37.3137 108.082C37.4009 107.82 37.4009 107.559 37.4881 107.297C36.965 106.687 36.4419 106.163 35.8316 105.553C34.8726 106.687 33.9136 107.733 32.9546 108.78ZM35.3957 99.6221C35.5701 99.7094 35.7444 99.8838 35.8316 100.058C35.8316 99.7094 35.9188 99.3605 35.9188 99.0116C35.6573 99.0988 35.3957 99.1861 35.2214 99.1861C35.3085 99.4477 35.3085 99.5349 35.3957 99.6221ZM31.7341 94.302C31.211 95.2614 30.6879 96.308 30.1648 97.2673C33.6521 95.3486 38.0984 94.6509 41.8472 94.2148C42.719 94.1276 43.5908 94.0404 44.4626 93.9531C45.4216 92.9938 46.3806 92.1216 47.3396 91.1623C44.8113 91.7728 42.1959 92.3833 39.6676 92.9066C37.2265 93.5171 34.5239 94.4764 31.9956 94.302C31.9085 94.3892 31.8213 94.3892 31.7341 94.302ZM35.6573 86.9759C34.5239 88.9819 33.4777 90.9878 32.4315 92.9938C34.2624 92.2961 36.2675 92.2961 38.2727 92.0344L47.8627 90.7262C48.5601 90.0285 49.2576 89.3307 49.955 88.7202C45.3344 89.854 40.5394 90.639 35.8316 91.2495C34.8726 91.4239 34.4367 89.9412 35.3957 89.7668C40.3651 89.0691 45.4216 88.3714 50.4781 88.1969C51.0884 87.5864 51.6115 87.0631 52.2218 86.4526C52.4833 86.1038 52.832 85.8421 53.0936 85.4933C47.6011 86.2782 41.76 86.9759 36.1804 87.1503C35.9188 87.1503 35.8316 87.0631 35.6573 86.9759ZM37.0522 84.4467C36.8778 84.7955 36.6163 85.1444 36.4419 85.5805C41.9343 85.1444 47.6883 85.1444 53.2679 85.2316C54.0526 84.4467 54.75 83.5745 55.5347 82.7024C49.432 83.4001 43.4164 84.0106 37.3137 84.4467C37.2265 84.4467 37.1394 84.4467 37.0522 84.4467ZM38.9702 81.1325C38.5343 81.8302 38.1855 82.5279 37.7496 83.3129C43.8523 82.7024 50.0422 82.3535 56.1449 82.0046C56.3193 81.8302 56.4065 81.6558 56.5808 81.4814C56.9296 81.1325 57.1911 80.6964 57.5398 80.3476C51.35 80.522 45.1601 80.7836 38.9702 81.1325ZM39.4061 80.3476C45.596 80.2603 51.6987 80.0859 57.8886 79.8243C57.9757 79.737 57.9758 79.6498 58.0629 79.5626C58.1501 79.6498 58.2373 79.737 58.3245 79.737C61.0271 79.6498 63.6425 79.5626 66.3452 79.4754C66.6939 79.1265 67.1298 78.7777 67.4785 78.4288C66.9554 78.3416 66.3452 78.2544 65.8221 78.1672C65.6477 78.1672 65.5605 77.9055 65.5605 77.8183C57.627 77.9055 49.432 78.7777 41.4984 78.08C40.9753 78.08 40.9753 77.3822 41.4984 77.295C49.432 76.6845 57.627 77.4694 65.6477 77.6439C65.7349 77.5567 65.8221 77.4694 65.9093 77.4694C66.7811 77.4694 67.6529 77.4694 68.5247 77.4694C69.135 76.9461 69.8324 76.4229 70.4427 75.8996C68.2632 75.8996 65.9965 75.8124 63.9041 75.2891C62.8579 75.2891 61.8989 75.2891 60.8527 75.2891L60.7656 75.3763C60.1553 75.9868 59.6322 76.5973 59.1091 77.2078C59.0219 77.1206 58.9347 77.0334 58.7604 76.9462C58.4117 76.9462 58.1501 76.6845 57.9757 76.3356C57.5398 75.9868 57.1039 75.6379 56.668 75.2891C55.8834 75.2891 55.0988 75.2891 54.3141 75.2891C50.3909 75.3763 46.2934 75.8124 42.3702 75.3763C41.2369 77.1206 40.3651 78.6905 39.4061 80.3476ZM45.1601 70.4922C44.4626 71.7132 43.678 72.9343 42.9805 74.1553C46.7293 73.9808 50.5653 74.5041 54.2269 74.6786C54.8372 74.6786 55.4475 74.7658 56.0578 74.7658C55.3603 74.1553 54.6628 73.5448 53.8782 72.9343C52.3961 73.1087 50.914 73.2831 49.4319 73.4575C47.6883 73.632 45.8575 74.068 44.2011 73.5448C43.8523 73.4575 43.5908 72.7598 44.1139 72.5854C45.596 71.9749 47.0781 72.0621 48.6473 72.0621C50.1294 72.0621 51.6115 72.0621 53.0064 72.0621C52.4833 71.5388 51.873 71.0155 51.3499 70.5794C50.5653 70.6666 49.7807 70.6667 49.0832 70.7539C47.8627 70.8411 46.6421 71.0155 45.5088 70.6667C45.2472 70.6667 45.1601 70.5794 45.1601 70.4922ZM45.5088 69.8817C46.6421 69.5329 47.7755 69.7073 48.9089 69.7945C49.432 69.7945 49.8679 69.8817 50.3909 69.8817C49.955 69.5329 49.6063 69.184 49.1704 68.7479C48.6473 68.7479 48.1242 68.6607 47.7755 68.6607C46.9037 68.6607 46.8165 67.4397 47.6011 67.2653L47.2524 67.0036C46.7293 67.963 46.1191 68.9223 45.5088 69.8817ZM46.2934 62.2068C46.8165 61.2474 47.514 60.288 48.2114 59.4159C46.6421 57.846 44.9857 56.2761 43.4164 54.7062C42.6318 55.5784 41.8472 56.5378 41.0625 57.4099C42.8062 59.067 44.5498 60.6369 46.2934 62.2068ZM39.842 56.3633C40.6266 55.4912 41.4984 54.5318 42.2831 53.6597C40.801 52.177 39.3189 50.7815 37.8368 49.2989C37.0522 50.3455 36.2675 51.3921 35.4829 52.4386C37.0522 53.7469 38.4471 55.0551 39.842 56.3633ZM31.3854 48.6012C32.4315 49.5605 33.5649 50.5199 34.6111 51.5665C35.3957 50.5199 36.1804 49.4733 37.0522 48.4267C36.006 47.4674 35.047 46.4208 34.0008 45.4614C33.4777 44.9381 32.8675 44.3276 32.3444 43.8043C31.4725 44.8509 30.5135 45.9847 29.6417 47.0313C30.1648 47.5546 30.7751 48.0779 31.3854 48.6012ZM28.5956 46.0719C29.4674 44.9381 30.4264 43.8915 31.3854 42.7577C29.8161 41.1879 28.334 39.7052 26.7647 38.1353C25.8929 39.3563 24.9339 40.6646 24.0621 41.8856C25.6314 43.3682 27.1135 44.7637 28.5956 46.0719ZM22.9288 40.9262C23.8878 39.7052 24.8467 38.4842 25.8057 37.2632C23.8006 35.2572 21.8826 33.3385 19.8774 31.3325C18.8312 32.728 17.8722 34.0362 16.826 35.4317C18.8312 37.2632 20.9236 39.0947 22.9288 40.9262ZM15.7799 34.4723C16.826 33.1641 17.9594 31.7686 19.0056 30.4604C19.8774 29.4138 20.662 28.3672 21.5339 27.4078C19.6159 25.4891 17.6979 23.6576 15.867 21.7388C13.949 24.2681 11.9439 26.7973 9.85153 29.2394C11.8567 30.9837 13.7747 32.728 15.7799 34.4723ZM8.5438 28.0183C8.63098 28.1056 8.80534 28.1928 8.89252 28.3672C10.8977 25.9252 13.0772 23.4832 15.1696 21.1283C14.9952 20.9539 14.7337 20.6923 14.5593 20.5178C12.9901 18.948 11.508 17.8142 10.549 15.8954C9.67716 17.0292 8.80534 18.3374 7.84634 19.5585C6.53862 21.2156 5.23089 22.8726 3.57444 23.832C5.40525 24.9658 6.88735 26.6229 8.5438 28.0183Z" fill="#B69D86"/>
</svg>
