<svg width="285" height="158" viewBox="0 0 285 158" fill="none" xmlns="http://www.w3.org/2000/svg">
<path fill-rule="evenodd" clip-rule="evenodd" d="M8.5 19.9475C13.1944 19.9475 17 15.5543 17 10.135C17 15.5543 20.8056 19.9475 25.5 19.9475C30.1944 19.9475 34 15.5543 34 10.135C34 15.5543 37.5817 19.9475 42 19.9475C46.4183 19.9475 50 15.5543 50 10.135C50 15.5543 53.8056 19.9475 58.5 19.9475C63.1944 19.9475 67 15.5543 67 10.135C67 15.5543 70.8056 19.9475 75.5 19.9475C80.1944 19.9475 84 15.5543 84 10.135C84 15.5543 87.8056 19.9475 92.5 19.9475C97.1944 19.9475 101 15.5543 101 10.135C101 15.5543 104.582 19.9475 109 19.9475C113.418 19.9475 117 15.5543 117 10.135C117 15.5543 120.806 19.9475 125.5 19.9475C130.194 19.9475 134 15.5543 134 10.135C134 15.5543 137.806 19.9475 142.5 19.9475C147.194 19.9475 151 15.5543 151 10.135C151 15.5543 154.806 19.9475 159.5 19.9475C164.194 19.9475 168 15.5543 168 10.135C168 15.5543 171.582 19.9475 176 19.9475C180.418 19.9475 184 15.5543 184 10.135C184 15.5543 187.806 19.9475 192.5 19.9475C197.194 19.9475 201 15.5543 201 10.135C201 15.5543 204.806 19.9475 209.5 19.9475C214.194 19.9475 218 15.5543 218 10.135C218 15.5543 221.806 19.9475 226.5 19.9475C231.194 19.9475 235 15.5543 235 10.135C235 15.5543 238.582 19.9475 243 19.9475C247.418 19.9475 251 15.5543 251 10.135C251 15.5543 254.806 19.9475 259.5 19.9475C264.194 19.9475 268 15.5543 268 10.135C268 15.5543 271.806 19.9475 276.5 19.9475C271.806 19.9475 268 24.3407 268 29.76C268 35.1793 271.806 39.5725 276.5 39.5725C271.806 39.5725 268 43.9657 268 49.385C268 54.8043 271.806 59.1975 276.5 59.1975C271.806 59.1975 268 63.5907 268 69.01C268 74.4293 271.806 78.8225 276.5 78.8225C271.806 78.8225 268 83.2157 268 88.635C268 94.0543 271.806 98.4475 276.5 98.4475C271.806 98.4475 268 102.841 268 108.26C268 113.679 271.806 118.073 276.5 118.073C271.806 118.073 268 122.466 268 127.885C268 133.304 271.806 137.698 276.5 137.698C271.806 137.698 268 142.091 268 147.51C268 152.929 271.806 157.323 276.5 157.323C281.194 157.323 285 152.929 285 147.51C285 142.091 281.194 137.698 276.5 137.698C281.194 137.698 285 133.304 285 127.885C285 122.466 281.194 118.073 276.5 118.073C281.194 118.073 285 113.679 285 108.26C285 102.841 281.194 98.4475 276.5 98.4475C281.194 98.4475 285 94.0543 285 88.635C285 83.2157 281.194 78.8225 276.5 78.8225C281.194 78.8225 285 74.4293 285 69.01C285 63.5907 281.194 59.1975 276.5 59.1975C281.194 59.1975 285 54.8043 285 49.385C285 43.9657 281.194 39.5725 276.5 39.5725C281.194 39.5725 285 35.1793 285 29.76C285 24.3407 281.194 19.9475 276.5 19.9475C281.194 19.9475 285 15.5543 285 10.135C285 4.71572 281.194 0.32251 276.5 0.32251C271.806 0.32251 268 4.71572 268 10.135C268 4.71572 264.194 0.32251 259.5 0.32251C254.806 0.32251 251 4.71572 251 10.135C251 4.71572 247.418 0.32251 243 0.32251C238.582 0.32251 235 4.71572 235 10.135C235 4.71572 231.194 0.32251 226.5 0.32251C221.806 0.32251 218 4.71572 218 10.135C218 4.71572 214.194 0.32251 209.5 0.32251C204.806 0.32251 201 4.71572 201 10.135C201 4.71572 197.194 0.32251 192.5 0.32251C187.806 0.32251 184 4.71572 184 10.135C184 4.71572 180.418 0.32251 176 0.32251C171.582 0.32251 168 4.71572 168 10.135C168 4.71572 164.194 0.32251 159.5 0.32251C154.806 0.32251 151 4.71572 151 10.135C151 4.71572 147.194 0.32251 142.5 0.32251C137.806 0.32251 134 4.71572 134 10.135C134 4.71572 130.194 0.32251 125.5 0.32251C120.806 0.32251 117 4.71572 117 10.135C117 4.71572 113.418 0.32251 109 0.32251C104.582 0.32251 101 4.71572 101 10.135C101 4.71572 97.1944 0.32251 92.5 0.32251C87.8056 0.32251 84 4.71572 84 10.135C84 4.71572 80.1944 0.32251 75.5 0.32251C70.8056 0.32251 67 4.71572 67 10.135C67 4.71572 63.1944 0.32251 58.5 0.32251C53.8056 0.32251 50 4.71572 50 10.135C50 4.71572 46.4183 0.32251 42 0.32251C37.5817 0.32251 34 4.71572 34 10.135C34 4.71572 30.1944 0.32251 25.5 0.32251C20.8056 0.32251 17 4.71572 17 10.135C17 4.71572 13.1944 0.32251 8.5 0.32251C3.80558 0.32251 0 4.71572 0 10.135C0 15.5543 3.80558 19.9475 8.5 19.9475ZM8.5 39.5725C3.80558 39.5725 0 35.1793 0 29.76C0 24.3407 3.80558 19.9475 8.5 19.9475C13.1944 19.9475 17 24.3407 17 29.76C17 35.1793 13.1944 39.5725 8.5 39.5725ZM8.5 59.1975C3.80558 59.1975 0 54.8043 0 49.385C0 43.9657 3.80558 39.5725 8.5 39.5725C13.1944 39.5725 17 43.9657 17 49.385C17 54.8043 13.1944 59.1975 8.5 59.1975ZM8.5 78.8225C3.80558 78.8225 0 74.4293 0 69.01C0 63.5907 3.80558 59.1975 8.5 59.1975C13.1944 59.1975 17 63.5907 17 69.01C17 74.4293 13.1944 78.8225 8.5 78.8225ZM8.5 98.4475C3.80558 98.4475 0 94.0543 0 88.635C0 83.2157 3.80558 78.8225 8.5 78.8225C13.1944 78.8225 17 83.2157 17 88.635C17 94.0543 13.1944 98.4475 8.5 98.4475ZM8.5 118.073C3.80558 118.073 0 113.679 0 108.26C0 102.841 3.80558 98.4475 8.5 98.4475C13.1944 98.4475 17 102.841 17 108.26C17 113.679 13.1944 118.073 8.5 118.073ZM8.5 118.073C3.80558 118.073 0 122.466 0 127.885C0 133.304 3.80558 137.698 8.5 137.698C13.1944 137.698 17 133.304 17 127.885C17 122.466 13.1944 118.073 8.5 118.073Z" fill="#F4EEE5"/>
<path fill-rule="evenodd" clip-rule="evenodd" d="M17 146.355C17 151.775 13.1944 156.168 8.5 156.168C3.80558 156.168 0 151.775 0 146.355C0 140.936 3.80558 136.543 8.5 136.543C13.1944 136.543 17 140.936 17 146.355ZM34 146.355C34 151.775 30.1944 156.168 25.5 156.168C20.8056 156.168 17 151.775 17 146.355C17 140.936 20.8056 136.543 25.5 136.543C30.1944 136.543 34 140.936 34 146.355ZM50 146.355C50 151.775 46.4183 156.168 42 156.168C37.5817 156.168 34 151.775 34 146.355C34 140.936 37.5817 136.543 42 136.543C46.4183 136.543 50 140.936 50 146.355ZM67 146.355C67 151.775 63.1944 156.168 58.5 156.168C53.8056 156.168 50 151.775 50 146.355C50 140.936 53.8056 136.543 58.5 136.543C63.1944 136.543 67 140.936 67 146.355ZM84 146.355C84 151.775 80.1944 156.168 75.5 156.168C70.8056 156.168 67 151.775 67 146.355C67 140.936 70.8056 136.543 75.5 136.543C80.1944 136.543 84 140.936 84 146.355ZM101 146.355C101 151.775 97.1944 156.168 92.5 156.168C87.8056 156.168 84 151.775 84 146.355C84 140.936 87.8056 136.543 92.5 136.543C97.1944 136.543 101 140.936 101 146.355ZM117 146.355C117 151.775 113.418 156.168 109 156.168C104.582 156.168 101 151.775 101 146.355C101 140.936 104.582 136.543 109 136.543C113.418 136.543 117 140.936 117 146.355ZM134 146.355C134 151.775 130.194 156.168 125.5 156.168C120.806 156.168 117 151.775 117 146.355C117 140.936 120.806 136.543 125.5 136.543C130.194 136.543 134 140.936 134 146.355ZM151 146.355C151 151.775 147.194 156.168 142.5 156.168C137.806 156.168 134 151.775 134 146.355C134 140.936 137.806 136.543 142.5 136.543C147.194 136.543 151 140.936 151 146.355ZM168 146.355C168 151.775 164.194 156.168 159.5 156.168C154.806 156.168 151 151.775 151 146.355C151 140.936 154.806 136.543 159.5 136.543C164.194 136.543 168 140.936 168 146.355ZM184 146.355C184 151.775 180.418 156.168 176 156.168C171.582 156.168 168 151.775 168 146.355C168 140.936 171.582 136.543 176 136.543C180.418 136.543 184 140.936 184 146.355ZM201 146.355C201 151.775 197.194 156.168 192.5 156.168C187.806 156.168 184 151.775 184 146.355C184 140.936 187.806 136.543 192.5 136.543C197.194 136.543 201 140.936 201 146.355ZM218 146.355C218 151.775 214.194 156.168 209.5 156.168C204.806 156.168 201 151.775 201 146.355C201 140.936 204.806 136.543 209.5 136.543C214.194 136.543 218 140.936 218 146.355ZM235 146.355C235 151.775 231.194 156.168 226.5 156.168C221.806 156.168 218 151.775 218 146.355C218 140.936 221.806 136.543 226.5 136.543C231.194 136.543 235 140.936 235 146.355ZM251 146.355C251 151.775 247.418 156.168 243 156.168C238.582 156.168 235 151.775 235 146.355C235 140.936 238.582 136.543 243 136.543C247.418 136.543 251 140.936 251 146.355ZM268 146.355C268 140.936 264.194 136.543 259.5 136.543C254.806 136.543 251 140.936 251 146.355C251 151.775 254.806 156.168 259.5 156.168C264.194 156.168 268 151.775 268 146.355ZM268 146.355C268 140.936 271.806 136.543 276.5 136.543C281.194 136.543 285 140.936 285 146.355C285 151.775 281.194 156.168 276.5 156.168C271.806 156.168 268 151.775 268 146.355Z" fill="#F4EEE5"/>
</svg>
