<svg width="1932" height="21" viewBox="0 0 1932 21" fill="none" xmlns="http://www.w3.org/2000/svg">
<path fill-rule="evenodd" clip-rule="evenodd" d="M0 0V0.0048275C0.145097 0.00190951 0.290567 0.000349784 0.436245 0H0ZM0.561983 0C12.96 0.0305241 23 9.21632 23 20.5434C23 20.6959 22.9983 20.8481 22.9946 20.9999H23.0054C23.0017 20.8481 23 20.6959 23 20.5434C23 9.21632 33.04 0.0305241 45.438 0H0.561983ZM45.5638 0C45.7094 0.000349784 45.8549 0.00190951 46 0.0048275C46.1451 0.00190951 46.2906 0.000349784 46.4362 0H45.5638ZM46.562 0C58.96 0.0305241 69 9.21632 69 20.5434C69 20.6959 68.9983 20.8481 68.9946 20.9999H69.0054C69.0017 20.8481 69 20.6959 69 20.5434C69 9.21632 79.04 0.0305241 91.438 0H46.562ZM91.5638 0C91.7094 0.000349784 91.8549 0.00190951 92 0.0048275C92.1451 0.00190951 92.2906 0.000349784 92.4362 0H91.5638ZM92.562 0C104.96 0.0305241 115 9.21632 115 20.5434C115 20.6959 114.998 20.8481 114.995 20.9999H115.005C115.002 20.8481 115 20.6959 115 20.5434C115 9.21632 125.04 0.0305241 137.438 0H92.562ZM137.564 0C137.709 0.000349784 137.855 0.00190951 138 0.0048275C138.145 0.00190951 138.291 0.000349784 138.436 0H137.564ZM138.562 0C150.96 0.0305241 161 9.21632 161 20.5434C161 20.6959 160.998 20.8481 160.995 20.9999H161.005C161.002 20.8481 161 20.6959 161 20.5434C161 9.21632 171.04 0.0305241 183.438 0H138.562ZM183.564 0C183.709 0.000349784 183.855 0.00190951 184 0.0048275C184.145 0.00190951 184.291 0.000349784 184.436 0H183.564ZM184.562 0C196.96 0.0305241 207 9.21632 207 20.5434C207 20.6959 206.998 20.8481 206.995 20.9999H207.005C207.002 20.8481 207 20.6959 207 20.5434C207 9.21632 217.04 0.0305241 229.438 0H184.562ZM229.564 0C229.709 0.000349784 229.855 0.00190951 230 0.0048275C230.145 0.00190951 230.291 0.000349784 230.436 0H229.564ZM230.562 0C242.96 0.0305241 253 9.21632 253 20.5434C253 20.6959 252.998 20.8481 252.995 20.9999H253.005C253.002 20.8481 253 20.6959 253 20.5434C253 9.21632 263.04 0.0305241 275.438 0H230.562ZM275.564 0C275.709 0.000349784 275.855 0.00190951 276 0.0048275C276.145 0.00190951 276.291 0.000349784 276.436 0H275.564ZM276.562 0C288.96 0.0305241 299 9.21632 299 20.5434C299 20.6342 298.999 20.7249 298.998 20.8155C298.997 20.877 298.996 20.9385 298.995 20.9999H299.005C299.002 20.8481 299 20.6959 299 20.5434C299 9.21632 309.04 0.0305241 321.438 0H276.562ZM321.564 0C321.709 0.000349784 321.855 0.00190951 322 0.0048275C322.145 0.00190951 322.291 0.000349784 322.436 0H321.564ZM322.562 0C334.96 0.0305241 345 9.21632 345 20.5434C345 20.6959 344.998 20.8481 344.995 20.9999H345.005C345.002 20.8481 345 20.6959 345 20.5434C345 9.21632 355.04 0.0305241 367.438 0H322.562ZM367.564 0C367.709 0.000349784 367.855 0.00190951 368 0.0048275C368.145 0.00190951 368.291 0.000349784 368.436 0H367.564ZM368.562 0C380.96 0.0305241 391 9.21632 391 20.5434C391 20.6281 390.999 20.7127 390.998 20.7972L390.997 20.8585C390.997 20.9057 390.996 20.9528 390.995 20.9999H391.005C391.002 20.8481 391 20.6959 391 20.5434C391 9.21632 401.04 0.0305241 413.438 0H368.562ZM413.564 0C413.709 0.000349784 413.855 0.00190951 414 0.0048275C414.145 0.00190951 414.291 0.000349784 414.436 0H413.564ZM414.562 0C426.96 0.0305241 437 9.21632 437 20.5434C437 20.6959 436.998 20.8481 436.995 20.9999H437.005C437.002 20.8481 437 20.6959 437 20.5434C437 9.21632 447.04 0.0305241 459.438 0H414.562ZM459.564 0C459.709 0.000349784 459.855 0.00190951 460 0.0048275C460.145 0.00190951 460.291 0.000349784 460.436 0H459.564ZM460.562 0C472.96 0.0305241 483 9.21632 483 20.5434C483 20.6959 482.998 20.8481 482.995 20.9999H483.005C483.004 20.9267 483.002 20.8534 483.001 20.78L483.001 20.7125C483 20.6562 483 20.5998 483 20.5434C483 9.21632 493.04 0.0305241 505.438 0H460.562ZM505.564 0C505.709 0.000349784 505.855 0.00190951 506 0.0048275C506.145 0.00190951 506.291 0.000349784 506.436 0H505.564ZM506.562 0C518.96 0.0305241 529 9.21632 529 20.5434C529 20.6959 528.998 20.8481 528.995 20.9999H529.005C529.004 20.9337 529.003 20.8673 529.002 20.8009C529.001 20.7152 529 20.6293 529 20.5434C529 9.21632 539.04 0.0305241 551.438 0H506.562ZM551.564 0C551.709 0.000349784 551.855 0.00190951 552 0.0048275C552.145 0.00190951 552.291 0.000349784 552.436 0H551.564ZM552.562 0C564.96 0.0305241 575 9.21632 575 20.5434C575 20.6959 574.998 20.8481 574.995 20.9999H575.005C575.004 20.9421 575.003 20.8843 575.002 20.8264C575.001 20.7322 575 20.6378 575 20.5434C575 9.21632 585.04 0.0305241 597.438 0H552.562ZM597.564 0C597.709 0.000349784 597.855 0.00190951 598 0.0048275C598.145 0.00190951 598.291 0.000349784 598.436 0H597.564ZM598.562 0C610.96 0.0305241 621 9.21632 621 20.5434C621 20.6959 620.998 20.8481 620.995 20.9999H621.005C621.002 20.8481 621 20.6959 621 20.5434C621 9.21632 631.04 0.0305241 643.438 0H598.562ZM643.564 0C643.709 0.000349784 643.855 0.00190951 644 0.0048275C644.145 0.00190951 644.291 0.000349784 644.436 0H643.564ZM644.562 0C656.96 0.0305241 667 9.21632 667 20.5434C667 20.6959 666.998 20.8481 666.995 20.9999H667.005C667.002 20.8481 667 20.6959 667 20.5434C667 9.21632 677.04 0.0305241 689.438 0H644.562ZM689.564 0C689.709 0.000349784 689.855 0.00190951 690 0.0048275C690.145 0.00190951 690.291 0.000349784 690.436 0H689.564ZM690.562 0C702.96 0.0305241 713 9.21632 713 20.5434C713 20.6959 712.998 20.8481 712.995 20.9999H713.005C713.002 20.8481 713 20.6959 713 20.5434C713 9.21632 723.04 0.0305241 735.438 0H690.562ZM735.564 0C735.709 0.000349784 735.855 0.00190951 736 0.0048275C736.145 0.00190951 736.291 0.000349784 736.436 0H735.564ZM736.562 0C748.96 0.0305241 759 9.21632 759 20.5434C759 20.6959 758.998 20.8481 758.995 20.9999H759.005C759.002 20.8481 759 20.6959 759 20.5434C759 9.21632 769.04 0.0305241 781.438 0H736.562ZM781.548 0L781.584 5.72205e-05L781.669 0.000465393C781.78 0.00118065 781.89 0.00261307 782 0.0048275C782.145 0.00190951 782.291 0.000349784 782.436 0H781.548ZM782.562 0C794.96 0.0305241 805 9.21632 805 20.5434C805 20.6959 804.998 20.8481 804.995 20.9999H805.005C805.002 20.8481 805 20.6959 805 20.5434C805 9.21632 815.04 0.0305241 827.438 0H782.562ZM827.564 0C827.709 0.000349784 827.855 0.00190951 828 0.0048275C828.05 0.00382996 828.099 0.00299072 828.149 0.00230408L828.209 0.00155449L828.298 0.000703812C828.344 0.000344294 828.39 0.000111124 828.436 0H827.564ZM828.562 0C840.96 0.0305241 851 9.21632 851 20.5434C851 20.6959 850.998 20.8481 850.995 20.9999H851.005C851.002 20.8481 851 20.6959 851 20.5434C851 9.21632 861.04 0.0305241 873.438 0H828.562ZM873.564 0C873.614 0.000119859 873.664 0.000383248 873.714 0.000793457C873.809 0.00157928 873.905 0.00291061 874 0.0048275C874.145 0.00190951 874.291 0.000349784 874.436 0H873.564ZM874.562 0C886.96 0.0305241 897 9.21632 897 20.5434C897 20.6959 896.998 20.8481 896.995 20.9999H897.005C897.002 20.8481 897 20.6959 897 20.5434C897 9.21632 907.04 0.0305241 919.438 0H874.562ZM919.564 0C919.709 0.000349784 919.855 0.00190951 920 0.0048275C920.145 0.00190951 920.291 0.000349784 920.436 0H919.564ZM920.562 0C932.96 0.0305241 943 9.21632 943 20.5434C943 20.6959 942.998 20.8481 942.995 20.9999H943.005C943.002 20.8481 943 20.6959 943 20.5434C943 9.21632 953.04 0.0305241 965.438 0H920.562ZM965.564 0C965.599 8.50591e-05 965.635 0.000243124 965.67 0.00047493C965.72 0.000797272 965.769 0.00126266 965.819 0.00187874C965.879 0.00263405 965.94 0.00361252 966 0.0048275C966.145 0.00190951 966.291 0.000349784 966.436 0H965.564ZM966.562 0C978.96 0.0305241 989 9.21632 989 20.5434C989 20.6959 988.998 20.8481 988.995 20.9999H989.005C989.002 20.8481 989 20.6959 989 20.5434C989 9.21632 999.04 0.0305241 1011.44 0H966.562ZM1011.56 0C1011.71 0.000349784 1011.85 0.00190951 1012 0.0048275C1012.1 0.00281525 1012.2 0.00144958 1012.3 0.000680923L1012.41 6.86646e-05L1012.45 0H1011.56ZM1012.56 0C1024.96 0.0305241 1035 9.21632 1035 20.5434C1035 20.6959 1035 20.8481 1034.99 20.9999H1035.01C1035 20.8481 1035 20.6959 1035 20.5434C1035 9.21632 1045.04 0.0305241 1057.44 0H1012.56ZM1057.56 0C1057.61 0.000122373 1057.67 0.000392889 1057.72 0.000818253C1057.81 0.00160789 1057.91 0.00293159 1058 0.0048275C1058.15 0.00190951 1058.29 0.000349784 1058.44 0H1057.56ZM1058.56 0C1070.96 0.0305241 1081 9.21632 1081 20.5434C1081 20.6959 1081 20.8481 1080.99 20.9999H1081.01C1081 20.8481 1081 20.6959 1081 20.5434C1081 9.21632 1091.04 0.0305241 1103.44 0H1058.56ZM1103.56 0C1103.71 0.000349784 1103.85 0.00190951 1104 0.0048275C1104.15 0.00190951 1104.29 0.000349784 1104.44 0H1103.56ZM1104.56 0C1116.96 0.0305241 1127 9.21632 1127 20.5434C1127 20.6959 1127 20.8481 1126.99 20.9999H1127.01C1127 20.911 1127 20.822 1127 20.7328C1127 20.6697 1127 20.6066 1127 20.5434C1127 9.21632 1137.04 0.0305241 1149.44 0H1104.56ZM1149.56 0C1149.6 8.64735e-05 1149.64 0.000247014 1149.67 0.000484467C1149.78 0.00120544 1149.89 0.00263214 1150 0.0048275C1150.15 0.00190951 1150.29 0.000349784 1150.44 0H1149.56ZM1150.56 0C1162.96 0.0305241 1173 9.21632 1173 20.5434C1173 20.6959 1173 20.8481 1172.99 20.9999H1173.01L1173 20.94L1173 20.8937L1173 20.808C1173 20.7199 1173 20.6317 1173 20.5434C1173 9.21632 1183.04 0.0305241 1195.44 0H1150.56ZM1195.56 0C1195.71 0.000349784 1195.85 0.00190951 1196 0.0048275C1196.1 0.00279808 1196.2 0.00142479 1196.3 0.000659943L1196.39 0.000148773L1196.46 0H1195.56ZM1196.56 0C1208.96 0.0305241 1219 9.21632 1219 20.5434C1219 20.622 1219 20.7006 1219 20.7791L1219 20.858C1219 20.9054 1219 20.9527 1218.99 20.9999H1219.01C1219 20.927 1219 20.854 1219 20.7809C1219 20.7018 1219 20.6226 1219 20.5434C1219 9.21632 1229.04 0.0305241 1241.44 0H1196.56ZM1241.56 0C1241.62 0.000125139 1241.67 0.000405147 1241.72 0.000846863C1241.81 0.00163841 1241.91 0.00295258 1242 0.0048275C1242.15 0.00190951 1242.29 0.000349784 1242.44 0H1241.56ZM1242.56 0C1254.96 0.0305241 1265 9.21632 1265 20.5434C1265 20.6959 1265 20.8481 1264.99 20.9999H1265.01C1265 20.8481 1265 20.6959 1265 20.5434C1265 9.21632 1275.04 0.0305241 1287.44 0H1242.56ZM1287.56 0C1287.71 0.000349784 1287.85 0.00190951 1288 0.0048275C1288.15 0.00190951 1288.29 0.000349784 1288.44 0H1287.56ZM1288.56 0C1300.96 0.0305241 1311 9.21632 1311 20.5434L1311 20.6363L1311 20.7351L1311 20.787C1311 20.858 1311 20.929 1310.99 20.9999H1311.01C1311 20.8481 1311 20.6959 1311 20.5434C1311 9.21632 1321.04 0.0305241 1333.44 0H1288.56ZM1333.56 0C1333.6 8.77327e-05 1333.64 0.000251597 1333.67 0.000494003C1333.74 0.000926971 1333.8 0.0016098 1333.87 0.00255585L1334 0.0048275C1334.15 0.00190951 1334.29 0.000349784 1334.44 0H1333.56ZM1334.56 0C1346.96 0.0305241 1357 9.21632 1357 20.5434C1357 20.6959 1357 20.8481 1356.99 20.9999H1357.01C1357 20.8481 1357 20.6959 1357 20.5434C1357 9.21632 1367.04 0.0305241 1379.44 0H1334.56ZM1379.56 0C1379.71 0.000349784 1379.85 0.00190951 1380 0.0048275C1380.1 0.00277901 1380.2 0.00139999 1380.31 0.000638962L1380.43 9.53674e-06L1380.44 0H1379.56ZM1380.56 0C1392.96 0.0305241 1403 9.21632 1403 20.5434C1403 20.6296 1403 20.7156 1403 20.8016C1403 20.8678 1403 20.9339 1402.99 20.9999H1403.01C1403 20.8481 1403 20.6959 1403 20.5434C1403 9.21632 1413.04 0.0305241 1425.44 0H1380.56ZM1425.56 0C1425.62 0.000127862 1425.67 0.000417364 1425.72 0.000875473C1425.82 0.00167084 1425.91 0.00297546 1426 0.0048275C1426.15 0.00190951 1426.29 0.000349784 1426.44 0H1425.56ZM1426.56 0C1438.96 0.0305241 1449 9.21632 1449 20.5434C1449 20.6131 1449 20.6827 1449 20.7523C1449 20.8349 1449 20.9175 1448.99 20.9999H1449.01C1449 20.8481 1449 20.6959 1449 20.5434C1449 9.21632 1459.04 0.0305241 1471.44 0H1426.56ZM1471.56 0C1471.71 0.000349784 1471.85 0.00190951 1472 0.0048275C1472.15 0.00190951 1472.29 0.000349784 1472.44 0H1471.56ZM1472.56 0C1484.96 0.0305241 1495 9.21632 1495 20.5434C1495 20.6959 1495 20.8481 1494.99 20.9999H1495.01C1495 20.8481 1495 20.6959 1495 20.5434C1495 9.21632 1505.04 0.0305241 1517.44 0H1472.56ZM1517.56 0C1517.71 0.000349784 1517.85 0.00190951 1518 0.0048275C1518.15 0.00190951 1518.29 0.000349784 1518.44 0H1517.56ZM1518.56 0C1530.96 0.0305241 1541 9.21632 1541 20.5434C1541 20.6959 1541 20.8481 1540.99 20.9999H1541.01C1541 20.8481 1541 20.6959 1541 20.5434C1541 9.21632 1551.04 0.0305241 1563.44 0H1518.56ZM1563.56 0C1563.71 0.000349784 1563.85 0.00190951 1564 0.0048275C1564.15 0.00190951 1564.29 0.000349784 1564.44 0H1563.56ZM1564.56 0C1576.96 0.0305241 1587 9.21632 1587 20.5434C1587 20.6959 1587 20.8481 1586.99 20.9999H1587.01C1587 20.9259 1587 20.8519 1587 20.7777C1587 20.6997 1587 20.6216 1587 20.5434C1587 9.21632 1597.04 0.0305241 1609.44 0H1564.56ZM1609.56 0C1609.71 0.000349784 1609.85 0.00190951 1610 0.0048275C1610.15 0.00190951 1610.29 0.000349784 1610.44 0H1609.56ZM1610.56 0C1622.96 0.0305241 1633 9.21632 1633 20.5434C1633 20.6959 1633 20.8481 1632.99 20.9999H1633.01C1633 20.8481 1633 20.6959 1633 20.5434C1633 9.21632 1643.04 0.0305241 1655.44 0H1610.56ZM1655.56 0C1655.71 0.000349784 1655.85 0.00190951 1656 0.0048275L1656.13 0.00261688L1656.2 0.00164032L1656.31 0.000621796L1656.36 0.000293732L1656.47 0H1655.56ZM1656.56 0C1668.96 0.0305241 1679 9.21632 1679 20.5434C1679 20.6959 1679 20.8481 1678.99 20.9999H1679.01C1679 20.9008 1679 20.8015 1679 20.702L1679 20.6429L1679 20.5434C1679 9.21632 1689.04 0.0305241 1701.44 0H1656.56ZM1701.56 0C1701.71 0.000349784 1701.85 0.00190951 1702 0.0048275C1702.15 0.00190951 1702.29 0.000349784 1702.44 0H1701.56ZM1702.56 0C1714.96 0.0305241 1725 9.21632 1725 20.5434C1725 20.6959 1725 20.8481 1724.99 20.9999H1725.01C1725 20.9419 1725 20.8839 1725 20.8257C1725 20.7318 1725 20.6376 1725 20.5434C1725 9.21632 1735.04 0.0305241 1747.44 0H1702.56ZM1747.56 0C1747.71 0.000349784 1747.85 0.00190951 1748 0.0048275C1748.15 0.00190951 1748.29 0.000349784 1748.44 0H1747.56ZM1748.56 0C1760.96 0.0305241 1771 9.21632 1771 20.5434C1771 20.6333 1771 20.7231 1771 20.8127C1771 20.8752 1771 20.9376 1770.99 20.9999H1771.01C1771 20.8481 1771 20.6959 1771 20.5434C1771 9.21632 1781.04 0.0305241 1793.44 0H1748.56ZM1793.56 0C1793.71 0.000349784 1793.85 0.00190951 1794 0.0048275C1794.15 0.00190951 1794.29 0.000349784 1794.44 0H1793.56ZM1794.56 0C1806.96 0.0305241 1817 9.21632 1817 20.5434C1817 20.6959 1817 20.8481 1816.99 20.9999H1817.01C1817 20.9235 1817 20.847 1817 20.7705L1817 20.6564L1817 20.5434C1817 9.21632 1827.04 0.0305241 1839.44 0H1794.56ZM1839.56 0C1839.71 0.000349784 1839.85 0.00190951 1840 0.0048275C1840.15 0.00190951 1840.29 0.000349784 1840.44 0H1839.56ZM1840.56 0C1852.96 0.0305241 1863 9.21632 1863 20.5434C1863 20.6959 1863 20.8481 1862.99 20.9999H1863.01C1863 20.8481 1863 20.6959 1863 20.5434C1863 9.21632 1873.04 0.0305241 1885.44 0H1840.56ZM1885.56 0C1885.71 0.000349784 1885.85 0.00190951 1886 0.0048275C1886.15 0.00190951 1886.29 0.000349784 1886.44 0H1885.56ZM1886.56 0C1898.96 0.0305241 1909 9.21632 1909 20.5434C1909 20.6959 1909 20.8481 1908.99 20.9999H1909.01C1909 20.8481 1909 20.6959 1909 20.5434C1909 9.21632 1919.04 0.0305241 1931.44 0H1886.56ZM1931.56 0C1931.71 0.000349784 1931.85 0.00190951 1932 0.0048275V0H1931.56Z" fill="#F7F7F7"/>
</svg>
