<svg width="105" height="112" viewBox="0 0 105 112" fill="none" xmlns="http://www.w3.org/2000/svg">
<g clip-path="url(#clip0_2_2863)">
<path d="M17.4472 85.3765L95.2972 53.9803L87.4481 34.5179L83.7989 35.9896L81.3661 36.9707L78.9333 37.9518L76.5005 38.933L74.0677 39.9141L71.6349 40.8952L69.2021 41.8763L66.7692 42.8575L64.3364 43.8386L61.9036 44.8197L59.4708 45.8009L57.038 46.782L54.6052 47.7631L52.1724 48.7443L49.7396 49.7254L47.3068 50.7065L44.8739 51.6877L42.4411 52.6688L40.0083 53.6499L37.5755 54.6311L35.1427 55.6122L32.7099 56.5933L30.2771 57.5744L27.8443 58.5556L25.4115 59.5367L22.9786 60.5178L20.5458 61.499L18.113 62.4801L15.6802 63.4612L9.59818 65.9141L17.4472 85.3765ZM16.5464 65.6089L18.9715 64.6088L20.0753 67.3457L22.5081 66.3646L21.412 63.6467L23.8448 62.6656L24.9409 65.3835L27.3737 64.4023L26.2776 61.6844L28.7104 60.7033L29.8065 63.4212L32.2393 62.4401L31.1356 59.7032L33.5684 58.722L34.6645 61.4399L37.0973 60.4588L36.0012 57.7409L38.434 56.7598L40.5189 61.9295L42.9517 60.9484L40.8745 55.7976L43.2996 54.7975L44.3957 57.5154L46.8285 56.5343L45.7324 53.8164L48.1652 52.8352L49.269 55.5721L51.7018 54.591L50.6057 51.8731L53.0385 50.892L54.1346 53.6099L56.5675 52.6288L55.4637 49.8918L57.8965 48.9107L58.9926 51.6286L61.4254 50.6475L60.3293 47.9296L62.7621 46.9484L64.847 52.1182L67.2798 51.137L65.2026 45.9863L67.6277 44.9862L68.7238 47.7041L71.1567 46.723L70.0605 44.0051L72.4934 43.0239L73.5971 45.7608L76.0299 44.7797L74.9338 42.0618L77.3666 41.0807L78.4628 43.7986L80.8956 42.8174L79.7918 40.0805L82.2246 39.0994L83.3284 41.8363L85.7612 40.8552L84.6651 38.1373L86.1788 37.5401L92.2807 52.6977L18.7299 82.36L12.6147 67.1968L14.1136 66.5901L16.1908 71.7408L18.6236 70.7597L16.5464 65.6089Z" fill="#FD9F32"/>
<path d="M83.3289 41.8371L85.7615 40.856L84.6655 38.1386L82.233 39.1196L83.3289 41.8371Z" fill="#FFF176"/>
<path d="M78.4634 43.7999L80.896 42.8188L79.8001 40.1014L77.3675 41.0824L78.4634 43.7999Z" fill="#FFF176"/>
<path d="M73.5994 45.7597L76.032 44.7787L74.9361 42.0613L72.5035 43.0423L73.5994 45.7597Z" fill="#FFF176"/>
<path d="M68.7332 47.7225L71.1658 46.7415L70.0698 44.024L67.6373 45.0051L68.7332 47.7225Z" fill="#FFF176"/>
<path d="M64.8477 52.1188L67.2803 51.1378L65.2033 45.9878L62.7708 46.9688L64.8477 52.1188Z" fill="#FFF176"/>
<path d="M59.0015 51.6481L61.4341 50.6671L60.3381 47.9496L57.9056 48.9307L59.0015 51.6481Z" fill="#FFF176"/>
<path d="M54.1361 53.6108L56.5686 52.6298L55.4727 49.9124L53.0401 50.8934L54.1361 53.6108Z" fill="#FFF176"/>
<path d="M49.2701 55.5737L51.7026 54.5927L50.6067 51.8752L48.1741 52.8562L49.2701 55.5737Z" fill="#FFF176"/>
<path d="M44.4051 57.5338L46.8376 56.5527L45.7417 53.8353L43.3092 54.8163L44.4051 57.5338Z" fill="#FFF176"/>
<path d="M40.5196 61.9302L42.9521 60.9491L40.8752 55.7991L38.4426 56.7801L40.5196 61.9302Z" fill="#FFF176"/>
<path d="M34.6727 61.4594L37.1052 60.4784L36.0093 57.7609L33.5767 58.7419L34.6727 61.4594Z" fill="#FFF176"/>
<path d="M29.8072 63.4221L32.2397 62.4411L31.1438 59.7236L28.7113 60.7046L29.8072 63.4221Z" fill="#FFF176"/>
<path d="M24.941 65.3849L27.3735 64.4039L26.2776 61.6864L23.845 62.6674L24.941 65.3849Z" fill="#FFF176"/>
<path d="M20.0767 67.3449L22.5093 66.3639L21.4133 63.6465L18.9808 64.6275L20.0767 67.3449Z" fill="#FFF176"/>
<path d="M16.1905 71.7412L18.623 70.7602L16.5461 65.6101L14.1135 66.5912L16.1905 71.7412Z" fill="#FFF176"/>
<path d="M83.3311 41.8351L85.7637 40.854L83.8016 35.989L81.3691 36.97L83.3311 41.8351Z" fill="#FD9F32"/>
<path d="M76.5002 38.933L78.933 37.9519L80.8953 42.8175L78.4625 43.7986L77.3664 41.0807L76.5002 38.933Z" fill="#FD9F32"/>
<path d="M71.6347 40.8953L74.0675 39.9141L74.9337 42.0618L76.0298 44.7798L73.597 45.7609L71.6347 40.8953Z" fill="#FD9F32"/>
<path d="M68.734 47.7234L71.1665 46.7424L69.2045 41.8773L66.7719 42.8583L68.734 47.7234Z" fill="#FD9F32"/>
<path d="M64.8492 52.1195L67.2817 51.1385L64.3387 43.8409L61.9061 44.8219L64.8492 52.1195Z" fill="#FD9F32"/>
<path d="M59.0037 51.6462L61.4363 50.6652L59.4742 45.8001L57.0417 46.7811L59.0037 51.6462Z" fill="#FD9F32"/>
<path d="M52.1721 48.7443L54.6049 47.7632L56.5672 52.6288L54.1343 53.61L53.0382 50.8921L52.1721 48.7443Z" fill="#FD9F32"/>
<path d="M47.3064 50.7065L49.7392 49.7254L50.6053 51.8731L51.7014 54.591L49.2686 55.5722L47.3064 50.7065Z" fill="#FD9F32"/>
<path d="M44.4058 57.5345L46.8384 56.5535L44.8763 51.6884L42.4438 52.6694L44.4058 57.5345Z" fill="#FD9F32"/>
<path d="M40.5196 61.9308L42.9521 60.9498L40.0091 53.6521L37.5765 54.6331L40.5196 61.9308Z" fill="#FD9F32"/>
<path d="M34.6739 61.4599L37.1064 60.4789L35.1444 55.6138L32.7118 56.5948L34.6739 61.4599Z" fill="#FD9F32"/>
<path d="M27.844 58.5557L30.2768 57.5746L32.239 62.4402L29.8062 63.4213L28.7101 60.7034L27.844 58.5557Z" fill="#FD9F32"/>
<path d="M22.9785 60.5179L25.4113 59.5368L26.2774 61.6845L27.3735 64.4024L24.9407 65.3836L22.9785 60.5179Z" fill="#FD9F32"/>
<path d="M20.0767 67.3457L22.5093 66.3647L20.5472 61.4996L18.1147 62.4806L20.0767 67.3457Z" fill="#FD9F32"/>
<path d="M16.1922 71.742L18.6248 70.761L15.6817 63.4634L13.2491 64.4444L16.1922 71.742Z" fill="#FD9F32"/>
</g>
<path d="M24.3215 21.2523C16.7086 27.5293 7.63185 44.4504 14.0368 52.2184C20.4418 59.9864 38.6705 54.165 46.2834 47.8879C53.8963 41.6108 63.9 24.1538 57.495 16.3858C51.09 8.61774 31.9344 14.9752 24.3215 21.2523Z" fill="#F2EDE6" stroke="#B69D86" stroke-width="2"/>
<path d="M51.8326 20.0829C52.2587 19.7315 52.889 19.7921 53.2403 20.2182C53.5916 20.6443 53.531 21.2746 53.1049 21.626L51.8326 20.0829ZM46.2327 27.2923C45.8066 27.6436 45.1764 27.583 44.825 27.1569C44.4737 26.7308 44.5343 26.1005 44.9604 25.7492L46.2327 27.2923ZM53.1049 21.626L46.2327 27.2923L44.9604 25.7492L51.8326 20.0829L53.1049 21.626Z" fill="#B69D86"/>
<path d="M41.523 28.5824C41.9491 28.231 42.5794 28.2916 42.9307 28.7178C43.2821 29.1439 43.2215 29.7741 42.7953 30.1255L41.523 28.5824ZM22.1788 47.1245C21.7527 47.4758 21.1224 47.4152 20.7711 46.9891C20.4198 46.563 20.4804 45.9327 20.9065 45.5814L22.1788 47.1245ZM42.7953 30.1255L22.1788 47.1245L20.9065 45.5814L41.523 28.5824L42.7953 30.1255Z" fill="#B69D86"/>
<defs>
<clipPath id="clip0_2_2863">
<rect x="73.2964" y="111.644" width="78.8326" height="78.8325" transform="rotate(-156.964 73.2964 111.644)" fill="white"/>
</clipPath>
</defs>
</svg>
