<svg width="32" height="32" viewBox="0 0 32 32" fill="none" xmlns="http://www.w3.org/2000/svg">
<path fill-rule="evenodd" clip-rule="evenodd" d="M6.5 5.42593C6.5 5.19069 6.69631 5 6.93846 5H10V5.85185H7.37692V26.4383C7.37692 26.6265 7.45391 26.8071 7.59096 26.9402C7.72801 27.0734 7.91388 27.1481 8.10769 27.1481H23.8923C24.0861 27.1481 24.272 27.0734 24.409 26.9402C24.5461 26.8071 24.6231 26.6265 24.6231 26.4383V5.85185H16.25V5H25.0615C25.3037 5 25.5 5.19069 25.5 5.42593V26.4383C25.5 26.8525 25.3306 27.2497 25.0291 27.5426C24.7276 27.8355 24.3187 28 23.8923 28H8.10769C7.68131 28 7.27238 27.8355 6.97088 27.5426C6.66938 27.2497 6.5 26.8525 6.5 26.4383V5.42593Z" fill="#B69D86"/>
<path fill-rule="evenodd" clip-rule="evenodd" d="M10.0479 4.58444C10.1825 4.44824 10.3651 4.37169 10.5555 4.37162H15.25C15.2881 4.37162 15.3246 4.38693 15.3516 4.41417C15.3785 4.44141 15.3936 4.47836 15.3936 4.51689V17.9918L13.2568 15.8303C13.176 15.7486 13.0664 15.7027 12.9521 15.7027C12.8379 15.7027 12.7283 15.7486 12.6475 15.8303L10.5106 17.9918V5.09797C10.5106 4.85728 10.3178 4.66216 10.0798 4.66216H9.97103L10.0479 4.58444ZM15.9609 3.79784C16.1494 3.98855 16.2553 4.2472 16.2553 4.51689V7.85811V8.72973V11.9257V12.7973V15.9932V16.8649V19.0439C16.2553 19.2202 16.1504 19.3791 15.9894 19.4466C15.8284 19.514 15.643 19.4767 15.5198 19.3521L12.9521 16.7548L10.3845 19.3521C10.2612 19.4767 10.0759 19.514 9.91492 19.4466C9.75392 19.3791 9.64895 19.2202 9.64895 19.0439V5.53378H8.93086C8.7566 5.53378 8.5995 5.4276 8.53281 5.26475C8.46612 5.1019 8.50298 4.91445 8.62621 4.78981L9.4385 3.96816C9.7347 3.66849 10.1365 3.50009 10.5555 3.5H15.25C15.5166 3.5 15.7723 3.60714 15.9609 3.79784ZM10.5555 4.37162C10.3651 4.37169 10.1825 4.44824 10.0479 4.58444L9.97103 4.66216H10.0798C10.3178 4.66216 10.5106 4.85728 10.5106 5.09797V17.9918L12.6475 15.8303C12.7283 15.7486 12.8379 15.7027 12.9521 15.7027C13.0664 15.7027 13.176 15.7486 13.2568 15.8303L15.3936 17.9918V4.51689C15.3936 4.47836 15.3785 4.44141 15.3516 4.41417C15.3246 4.38693 15.2881 4.37162 15.25 4.37162H10.5555C10.5555 4.37162 10.5554 4.37162 10.5555 4.37162ZM16.2553 7.85811V4.51689C16.2553 4.2472 16.1494 3.98855 15.9609 3.79784C15.7723 3.60714 15.5166 3.5 15.25 3.5H10.5555C10.1365 3.50009 9.7347 3.66849 9.4385 3.96816C9.43852 3.96814 9.43849 3.96818 9.4385 3.96816L8.62621 4.78981C8.50298 4.91445 8.46612 5.1019 8.53281 5.26475C8.5995 5.4276 8.7566 5.53378 8.93086 5.53378H9.64895V19.0439C9.64895 19.2202 9.75392 19.3791 9.91492 19.4466C10.0759 19.514 10.2612 19.4767 10.3845 19.3521L12.9521 16.7548L15.5198 19.3521C15.643 19.4767 15.8284 19.514 15.9894 19.4466C16.1504 19.3791 16.2553 19.2202 16.2553 19.0439V16.8649H21.5691C21.8071 16.8649 22 16.6697 22 16.4291C22 16.1884 21.8071 15.9932 21.5691 15.9932H16.2553V12.7973H21.5691C21.8071 12.7973 22 12.6022 22 12.3615C22 12.1208 21.8071 11.9257 21.5691 11.9257H16.2553V8.72973H21.5691C21.8071 8.72973 22 8.53461 22 8.29392C22 8.05323 21.8071 7.85811 21.5691 7.85811H16.2553ZM9.64895 20.4966C9.64895 20.2559 9.84185 20.0608 10.0798 20.0608H21.5691C21.8071 20.0608 22 20.2559 22 20.4966C22 20.7373 21.8071 20.9324 21.5691 20.9324H10.0798C9.84185 20.9324 9.64895 20.7373 9.64895 20.4966ZM9.64895 24.5642C9.64895 24.3235 9.84185 24.1284 10.0798 24.1284H21.5691C21.8071 24.1284 22 24.3235 22 24.5642C22 24.8049 21.8071 25 21.5691 25H10.0798C9.84185 25 9.64895 24.8049 9.64895 24.5642Z" fill="#B69D86"/>
<path fill-rule="evenodd" clip-rule="evenodd" d="M10.0967 4.58582C10.2356 4.44944 10.4239 4.37279 10.6203 4.37273H15.463C15.5023 4.37273 15.5399 4.38805 15.5677 4.41533C15.5955 4.44261 15.6111 4.4796 15.6111 4.51818V18.0101L13.4069 15.846C13.3235 15.7641 13.2105 15.7182 13.0926 15.7182C12.9747 15.7182 12.8617 15.7641 12.7783 15.846L10.5741 18.0101V5.1C10.5741 4.859 10.3751 4.66364 10.1296 4.66364H10.0174L10.0967 4.58582ZM16.1963 3.79822C16.3907 3.98917 16.5 4.24814 16.5 4.51818V7.86363V8.73636V11.9364V12.8091V16.0091V16.8818V19.0636C16.5 19.2401 16.3917 19.3992 16.2256 19.4668C16.0596 19.5343 15.8684 19.497 15.7413 19.3722L13.0926 16.7716L10.4439 19.3722C10.3168 19.497 10.1256 19.5343 9.95956 19.4668C9.79348 19.3992 9.6852 19.2401 9.6852 19.0636V5.53636H8.94446C8.7647 5.53636 8.60264 5.43005 8.53384 5.26699C8.46505 5.10393 8.50308 4.91624 8.63019 4.79144L9.46811 3.96875C9.77365 3.6687 10.1882 3.50009 10.6203 3.5H15.463C15.738 3.5 16.0018 3.60727 16.1963 3.79822Z" fill="#FD9F32"/>
</svg>
